<svg xmlns:xlink="http://www.w3.org/1999/xlink" width="1132" viewBox="0 0 1132 804" xmlns:ev="http://www.w3.org/2001/xml-events" height="804" xmlns="http://www.w3.org/2000/svg"><style type="text/css"><![CDATA[
.st4 {fill:#002060;font-family:宋体;font-size:14pt}
.st5 {fill:#00b050;font-family:宋体;font-size:14pt;font-weight:bold}
.st3 {fill:#118972;font-family:宋体;font-size:14pt}
.st2 {fill:#1f6391;font-family:宋体;font-size:14pt}
.st1 {fill:#ff0000;font-family:宋体;font-size:14pt}
]]></style><defs/><g id="page1" transform="translate(5,5)"><rect width="1123" height="794" y="0" fill="#ffffff" x="0" stroke="#808080"/><path id="shape1" d="M0,0L298,0" transform="matrix(0,1,-1,0,161,217)" fill="none" stroke="#000000" stroke-width="4"/><path id="shape2" d="M0,0L298,0" transform="matrix(0,1,-1,0,983,217)" fill="none" stroke="#000000" stroke-width="4"/><path id="shape3" d="M0,0L449,0" transform="translate(477,728)" fill="none" stroke="#000000" stroke-width="4"/><g id="shape4" transform="translate(165,265)"><path d="M0,0L68.3,0" fill="none" stroke="#000000" stroke-width="2.66667"/><path stroke-linecap="round" d="M77.5,0C77.5,3.6,74.6,6.5,71,6.5C67.4,6.5,64.5,3.6,64.5,0C64.5,-3.6,67.4,-6.5,71,-6.5C74.6,-6.5,77.5,-3.6,77.5,0" fill="#000000" stroke-width="1" stroke="#000000"/></g><g id="shape5" transform="translate(161,425)"><path d="M0,0L77.3,0" fill="none" stroke="#000000" stroke-width="2.66667"/><path stroke-linecap="round" d="M86.5,0C86.5,3.6,83.6,6.5,80,6.5C76.4,6.5,73.5,3.6,73.5,0C73.5,-3.6,76.4,-6.5,80,-6.5C83.6,-6.5,86.5,-3.6,86.5,0" fill="#000000" stroke-width="1" stroke="#000000"/></g><g id="shape6" transform="translate(893,265)"><path d="M2.7,0L90,0" fill="none" stroke="#000000" stroke-width="2.66667"/><path stroke-linecap="round" d="M-6.5,0C-6.5,-3.6,-3.6,-6.5,0,-6.5C3.6,-6.5,6.5,-3.6,6.5,0C6.5,3.6,3.6,6.5,0,6.5C-3.6,6.5,-6.5,3.6,-6.5,0" fill="#000000" stroke-width="1" stroke="#000000"/></g><g id="shape7" transform="translate(893,416)"><path d="M2.7,0L90,0" fill="none" stroke="#000000" stroke-width="2.66667"/><path stroke-linecap="round" d="M-6.5,0C-6.5,-3.6,-3.6,-6.5,0,-6.5C3.6,-6.5,6.5,-3.6,6.5,0C6.5,3.6,3.6,6.5,0,6.5C-3.6,6.5,-6.5,3.6,-6.5,0" fill="#000000" stroke-width="1" stroke="#000000"/></g><g id="shape8" transform="matrix(0,-1,1,0,562,728)"><path d="M0,0L78.3,0" fill="none" stroke="#000000" stroke-width="2.66667"/><path stroke-linecap="round" d="M87.5,0C87.5,3.6,84.6,6.5,81,6.5C77.4,6.5,74.5,3.6,74.5,0C74.5,-3.6,77.4,-6.5,81,-6.5C84.6,-6.5,87.5,-3.6,87.5,0" fill="#000000" stroke-width="1" stroke="#000000"/></g><g id="shape9" transform="matrix(0,-1,1,0,808,728)"><path d="M0,0L78.3,0" fill="none" stroke="#000000" stroke-width="2.66667"/><path stroke-linecap="round" d="M87.5,0C87.5,3.6,84.6,6.5,81,6.5C77.4,6.5,74.5,3.6,74.5,0C74.5,-3.6,77.4,-6.5,81,-6.5C84.6,-6.5,87.5,-3.6,87.5,0" fill="#000000" stroke-width="1" stroke="#000000"/></g><g transform="translate(236,237)"><path id="shape10" fill-opacity="0" d="M118,56L118,0L0,0L0,56L118,56z" fill="#ffffff" stroke="#1bbc9d"/><text class="st1"><tspan y="34" x="23">macosx</tspan></text></g><g transform="translate(241,397)"><path id="shape11" fill-opacity="0" d="M118,56L118,0L0,0L0,56L118,56z" fill="#ffffff" stroke="#1bbc9d"/><text class="st1"><tspan y="34" x="17">freebsd4</tspan></text></g><g transform="translate(775,237)"><path id="shape12" fill-opacity="0" d="M118,56L118,0L0,0L0,56L118,56z" fill="#ffffff" stroke="#1bbc9d"/><text class="st1"><tspan y="34" x="45">aix</tspan></text></g><g transform="translate(775,388)"><path id="shape13" fill-opacity="0" d="M118,56L118,0L0,0L0,56L118,56z" fill="#ffffff" stroke="#1bbc9d"/><text class="st1"><tspan y="34" x="23">freebsd</tspan></text></g><g transform="translate(503,591)"><path id="shape14" fill-opacity="0" d="M118,56L118,0L0,0L0,56L118,56z" fill="#ffffff" stroke="#1bbc9d"/><text class="st1"><tspan y="34" x="35">linux</tspan></text></g><g transform="translate(749,591)"><path id="shape15" fill-opacity="0" d="M118,56L118,0L0,0L0,56L118,56z" fill="#ffffff" stroke="#1bbc9d"/><text class="st1"><tspan y="34" x="27">solaris</tspan></text></g><g id="shape16" transform="translate(80,524)"><text class="st2"><tspan y="27.5" x="19">172.24.37/24</tspan></text></g><g id="shape17" transform="translate(217,165)"><text class="st2"><tspan y="17" x="7">MacOS/X 10.1.6</tspan><tspan y="39" x="30">(darwin 6.6</tspan><tspan y="61" x="35">Power PC)</tspan></text></g><g id="shape18" transform="translate(189,241)"><text class="st2"><tspan y="15.5" x="4">78</tspan></text></g><g id="shape19" transform="translate(184,421)"><text class="st2"><tspan y="27" x="7">94</tspan></text></g><g id="shape20" transform="translate(236,463)"><text class="st2"><tspan y="37.5" x="7">FreeBSD 4.8</tspan><tspan y="59.5" x="26">Intel x86</tspan></text></g><g id="shape21" transform="translate(765,175)"><text class="st2"><tspan y="23" x="36">AIX 5.1</tspan><tspan y="45" x="24">Power PC</tspan></text></g><g id="shape22" transform="translate(775,454)"><text class="st2"><tspan y="30" x="11">FreeBSD 5.1</tspan><tspan y="52" x="40">SPARC</tspan></text></g><g id="shape23" transform="translate(924,415)"><text class="st2"><tspan y="25" x="8">1</tspan></text></g><g id="shape24" transform="translate(917,231.5)"><text class="st2"><tspan y="25" x="8">2</tspan></text></g><g id="shape25" transform="translate(879,515)"><text class="st3"><tspan y="28" x="29">192.168.42/24</tspan><tspan y="50" x="10">3ffe:b80:1f8d:2/64</tspan></text></g><g id="shape26" transform="translate(345,562.5)"><text class="st2"><tspan y="40.5" x="35">linux2.4.7</tspan><tspan y="62.5" x="24">(ReaHat7.2)</tspan><tspan y="84.5" x="40">Intel x86</tspan></text></g><g id="shape27" transform="translate(860,571.5)"><text class="st2"><tspan y="36" x="26">Solaris 9</tspan><tspan y="58" x="10">(SunOS 5.9)</tspan><tspan y="80" x="35">SPARC</tspan></text></g><g id="shape28" transform="translate(524,680)"><text class="st2"><tspan y="22.5" x="4">10</tspan></text></g><g id="shape29" transform="translate(808,671)"><text class="st2"><tspan y="22.5" x="4">20</tspan></text></g><g id="shape30" transform="translate(326,713)"><text class="st2"><tspan y="22.5" x="9">192.168.1/24</tspan></text></g><g id="shape31" transform="translate(527,397)"><path d="M0,28C0,12.5,21,0,47,0C73,0,94,12.5,94,28C94,43.5,73,56,47,56C21,56,0,43.5,0,28z" fill="#3498db" stroke="#3498db"/><text class="st4"><tspan y="34" x="19">因特网</tspan></text></g><g id="shape32" transform="translate(359,425)"><path d="M0,0L168,0" stroke-dasharray="11,5" fill="none" stroke="#000000" stroke-width="1.33333"/><path stroke-linecap="round" d="M-4.6,0C-4.6,-2.6,-2.6,-4.6,0,-4.6C2.6,-4.6,4.6,-2.6,4.6,0C4.6,2.6,2.6,4.6,0,4.6C-2.6,4.6,-4.6,2.6,-4.6,0" fill="#000000" stroke-width="1" stroke="#000000"/></g><g id="shape33" transform="translate(621,425)"><path d="M0,0L154,0" stroke-dasharray="11,5" fill="none" stroke="#000000" stroke-width="1.33333"/><path stroke-linecap="round" d="M158.6,0C158.6,2.6,156.6,4.6,154,4.6C151.4,4.6,149.4,2.6,149.4,0C149.4,-2.6,151.4,-4.6,154,-4.6C156.6,-4.6,158.6,-2.6,158.6,0" fill="#000000" stroke-width="1" stroke="#000000"/></g><g id="shape34" transform="matrix(0,1,-1,0,574,453)"><path d="M0,0L138,0" stroke-dasharray="11,5" fill="none" stroke="#000000" stroke-width="1.33333"/><path stroke-linecap="round" d="M141.5,0C141.5,1.9,139.9,3.5,138,3.5C136.1,3.5,134.5,1.9,134.5,0C134.5,-1.9,136.1,-3.5,138,-3.5C139.9,-3.5,141.5,-1.9,141.5,0" fill="#000000" stroke-width="1" stroke="#000000"/></g><g id="shape35" transform="matrix(0,1,-1,0,574,194)"><path d="M0,0L203,0" stroke-dasharray="11,5" fill="none" stroke="#236ea1" stroke-width="1.33333"/><path stroke-linecap="round" d="M-4.6,0C-4.6,-2.6,-2.6,-4.6,0,-4.6C2.6,-4.6,4.6,-2.6,4.6,0C4.6,2.6,2.6,4.6,0,4.6C-2.6,4.6,-4.6,2.6,-4.6,0" fill="#236ea1" stroke-width="1" stroke="#236ea1"/></g><g transform="translate(527,138)"><path id="shape36" fill-opacity="0" d="M94,56L94,0L0,0L0,56L94,56z" fill="#ffffff" stroke="#1bbc9d"/><text class="st1"><tspan y="34" x="23">hpux</tspan></text></g><g id="shape37" transform="translate(638,113)"><text class="st2"><tspan y="34" x="31">HP-UX lli</tspan><tspan y="56" x="6">(HP-UX) 11.11</tspan><tspan y="78" x="35">PA-RISC</tspan></text></g><g id="shape38" transform="translate(605,203)"><text class="st2"><tspan y="29.5" x="10">192.6.38.100</tspan></text></g><g id="shape39" transform="translate(359,388)"><text class="st2"><tspan y="29.5" x="4.3">135.197.17.100</tspan></text></g><g id="shape40" transform="translate(619.5,388)"><text class="st2"><tspan y="29.5" x="6">12.106.32.254</tspan></text></g><g id="shape41" transform="translate(585.5,439)"><text class="st2"><tspan y="27" x="4">3ffe:b80:3:9ad1::2</tspan></text></g><g id="shape42" transform="translate(600,543)"><text class="st2"><tspan y="29.5" x="5">206.168.112.96</tspan></text></g><g id="shape43" transform="translate(373,47)"><text class="st5"><tspan y="32" x="97">示例用网络和主机</tspan></text></g></g></svg>