<svg height="804" xmlns="http://www.w3.org/2000/svg" xmlns:xlink="http://www.w3.org/1999/xlink" viewBox="0 0 1132 804" width="1132" xmlns:ev="http://www.w3.org/2001/xml-events"><style type="text/css"><![CDATA[
.st2 {fill:#000000;font-family:宋体;font-size:16pt;font-weight:bold}
.st3 {fill:#118972;font-family:宋体;font-size:16pt;font-weight:bold}
.st4 {fill:#1f6391;font-family:宋体;font-size:14pt}
.st1 {fill:#ffffff;font-family:宋体;font-size:12pt}
]]></style><defs/><g transform="translate(5,5)" id="page1"><rect stroke="#808080" height="794" fill="#ffffff" y="0" x="0" width="1123"/><g transform="translate(222.14,141.38)"><path stroke="#3498db" fill="#3498db" d="M118,48L118,0L0,0L0,48L118,48z" id="shape1"/><text class="st1"><tspan y="28.5" x="11">客户应用进程</tspan></text></g><g transform="translate(771.64,141.38)"><path stroke="#3498db" fill="#3498db" d="M109,53L109,0L0,0L0,53L109,53z" id="shape2"/><text class="st1"><tspan y="21.5" x="15">服务器应用</tspan><tspan y="40.5" x="39">进程</tspan></text></g><g transform="translate(226.14,227.38)"><path stroke="#3498db" fill="#3498db" d="M110,67L110,0L0,0L0,67L110,67z" id="shape3"/><text class="st1"><tspan y="28.5" x="11">使用TCP/IP</tspan><tspan y="47.5" x="31">的主机</tspan></text></g><g transform="translate(771.64,227.38)"><path stroke="#3498db" fill="#3498db" d="M110,67L110,0L0,0L0,67L110,67z" id="shape4"/><text class="st1"><tspan y="28.5" x="11">使用TCP/IP</tspan><tspan y="47.5" x="31">的主机</tspan></text></g><path stroke="#000000" fill="none" stroke-width="2.66667" d="M0,0L217,0" transform="translate(212.14,369.38)" id="shape5"/><path stroke="#000000" fill="none" stroke-width="2.66667" d="M0,0L217,0" transform="translate(713.14,350.38)" id="shape6"/><path stroke="#16a58a" fill="none" d="M0,0L38,0" transform="matrix(0,1,-1,0,281.1,189.4)" id="shape7"/><path stroke="#118972" fill="none" d="M0,0L33,0" transform="matrix(0.02,1,-1,0.02,826.1,194.4)" id="shape8"/><path stroke="#118972" fill="none" d="M0,0L75,0" transform="matrix(0,1,-1,0,281.1,294.4)" id="shape9"/><path stroke="#118972" fill="none" d="M0,0L56,0" transform="matrix(0,1,-1,0,826.6,294.4)" id="shape10"/><g transform="translate(222.14,369.38)" id="shape11"><text class="st2"><tspan y="32.5" x="22">LAN</tspan></text></g><g transform="translate(840.14,341.38)" id="shape12"><text class="st2"><tspan y="32.5" x="22">LAN</tspan></text></g><g transform="translate(316.14,397.81)"><path stroke="#3498db" fill="#3498db" d="M16.5,33L77.5,33C86.6,33,94,25.6,94,16.5C94,7.4,86.6,0,77.5,0L16.5,0C7.4,0,0,7.4,0,16.5C0,25.6,7.4,33,16.5,33z" id="shape13"/><text class="st1"><tspan y="21" x="23">路由器</tspan></text></g><g transform="translate(727.14,397.81)"><path stroke="#3498db" fill="#3498db" d="M16.5,33L77.5,33C86.6,33,94,25.6,94,16.5C94,7.4,86.6,0,77.5,0L16.5,0C7.4,0,0,7.4,0,16.5C0,25.6,7.4,33,16.5,33z" id="shape14"/><text class="st1"><tspan y="21" x="23">路由器</tspan></text></g><g transform="translate(316.14,487.96)"><path stroke="#3498db" fill="#3498db" d="M16.5,33L77.5,33C86.6,33,94,25.6,94,16.5C94,7.4,86.6,0,77.5,0L16.5,0C7.4,0,0,7.4,0,16.5C0,25.6,7.4,33,16.5,33z" id="shape15"/><text class="st1"><tspan y="21" x="23">路由器</tspan></text></g><g transform="translate(456.89,487.96)"><path stroke="#3498db" fill="#3498db" d="M16.5,33L77.5,33C86.6,33,94,25.6,94,16.5C94,7.4,86.6,0,77.5,0L16.5,0C7.4,0,0,7.4,0,16.5C0,25.6,7.4,33,16.5,33z" id="shape16"/><text class="st1"><tspan y="21" x="23">路由器</tspan></text></g><g transform="translate(727.14,487.96)"><path stroke="#3498db" fill="#3498db" d="M16.5,33L77.5,33C86.6,33,94,25.6,94,16.5C94,7.4,86.6,0,77.5,0L16.5,0C7.4,0,0,7.4,0,16.5C0,25.6,7.4,33,16.5,33z" id="shape17"/><text class="st1"><tspan y="21" x="23">路由器</tspan></text></g><g transform="translate(597.64,487.96)"><path stroke="#3498db" fill="#3498db" d="M16.5,33L77.5,33C86.6,33,94,25.6,94,16.5C94,7.4,86.6,0,77.5,0L16.5,0C7.4,0,0,7.4,0,16.5C0,25.6,7.4,33,16.5,33z" id="shape18"/><text class="st1"><tspan y="21" x="23">路由器</tspan></text></g><path stroke="#118972" fill="none" d="M0,0L0,28.4" transform="translate(363.14,369.38)" id="shape19"/><path stroke="#118972" fill="none" d="M0,0L0,57.1" transform="translate(363.14,430.81)" id="shape20"/><path stroke="#118972" fill="none" d="M0,0L46.8,0" transform="translate(410.14,504.46)" id="shape21"/><path stroke="#118972" fill="none" d="M0,0L46.8,0" transform="translate(550.89,504.46)" id="shape22"/><path stroke="#118972" fill="none" d="M0,0L35.5,0" transform="translate(691.64,504.46)" id="shape23"/><path stroke="#118972" fill="none" d="M0,0L0,-57.1" transform="translate(774.14,487.96)" id="shape24"/><path stroke="#118972" fill="none" d="M0,0L0,-47.4" transform="translate(774.14,397.81)" id="shape25"/><path stroke="#000000" fill="none" d="M16.8,0C16.7,0,8.3,3.3,8.3,12.8L8.3,63.6C8.3,63.6,7.3,67.7,5.3,71.1C3.4,74.4,0,76.3,0,76.3C0,76.3,3.5,78,5.3,81C7.4,84.5,8.3,88.9,8.3,88.9L8.3,143C8.3,143,9.7,153,16.8,153" transform="translate(300.38,381.32)" id="shape26"/><g transform="translate(187.38,444.32)" id="shape27"><text class="st3"><tspan y="32.5" x="25">WAN</tspan></text></g><g transform="translate(260.88,563.32)" id="shape28"><text class="st4"><tspan y="50.5" x="96">处于不同局域网客户主机和服务器主机通过广域网连接</tspan></text></g></g></svg>