<svg height="804" xmlns="http://www.w3.org/2000/svg" xmlns:xlink="http://www.w3.org/1999/xlink" viewBox="0 0 1132 804" width="1132" xmlns:ev="http://www.w3.org/2001/xml-events"><style type="text/css"><![CDATA[
.st3 {fill:#000000;font-family:宋体;font-size:14pt}
.st6 {fill:#002060;font-family:宋体;font-size:16pt;font-weight:bold}
.st8 {fill:#118972;font-family:宋体;font-size:16pt;font-weight:bold}
.st4 {fill:#191919;font-family:宋体;font-size:14pt}
.st2 {fill:#1f6391;font-family:宋体;font-size:14pt;font-weight:bold}
.st5 {fill:#7030a0;font-family:宋体;font-size:16pt;font-weight:bold}
.st7 {fill:#c00000;font-family:宋体;font-size:16pt;font-weight:bold}
.st1 {fill:#ffffff;font-family:宋体;font-size:16pt}
]]></style><defs/><g transform="translate(5,5)" id="page1"><rect stroke="#808080" height="794" fill="#ffffff" y="0" x="0" width="1123"/><g transform="translate(256.01,428.35)"><path stroke="#3498db" fill="#3498db" d="M22.5,45L114.5,45C126.9,45,137,34.9,137,22.5C137,10.1,126.9,0,114.5,0L22.5,0C10.1,0,0,10.1,0,22.5C0,34.9,10.1,45,22.5,45z" id="shape1"/><text class="st1"><tspan y="16.5" x="16">以太网驱动</tspan><tspan y="41.5" x="48">程序</tspan></text></g><g transform="translate(256.01,326.85)"><path stroke="#3498db" fill="#3498db" d="M22,44L115,44C127.2,44,137,34.2,137,22C137,9.8,127.2,0,115,0L22,0C9.8,0,0,9.8,0,22C0,34.2,9.8,44,22,44z" id="shape2"/><text class="st1"><tspan y="28.5" x="57">IP</tspan></text></g><g transform="translate(256.01,221.35)"><path stroke="#3498db" fill="#3498db" d="M24,48L113,48C126.3,48,137,37.3,137,24C137,10.7,126.3,0,113,0L24,0C10.7,0,0,10.7,0,24C0,37.3,10.7,48,24,48z" id="shape3"/><text class="st1"><tspan y="30.5" x="46">TCP</tspan></text></g><g transform="translate(256.01,116.85)"><path stroke="#3498db" fill="#3498db" d="M23.5,47L113.5,47C126.5,47,137,36.5,137,23.5C137,10.5,126.5,0,113.5,0L23.5,0C10.5,0,0,10.5,0,23.5C0,36.5,10.5,47,23.5,47z" id="shape4"/><text class="st1"><tspan y="30" x="48">客户</tspan></text></g><g transform="translate(761.01,428.35)"><path stroke="#3498db" fill="#3498db" d="M22.5,45L114.5,45C126.9,45,137,34.9,137,22.5C137,10.1,126.9,0,114.5,0L22.5,0C10.1,0,0,10.1,0,22.5C0,34.9,10.1,45,22.5,45z" id="shape5"/><text class="st1"><tspan y="16.5" x="16">以太网驱动</tspan><tspan y="41.5" x="48">程序</tspan></text></g><g transform="translate(761.01,326.85)"><path stroke="#3498db" fill="#3498db" d="M22,44L115,44C127.2,44,137,34.2,137,22C137,9.8,127.2,0,115,0L22,0C9.8,0,0,9.8,0,22C0,34.2,9.8,44,22,44z" id="shape6"/><text class="st1"><tspan y="28.5" x="57">IP</tspan></text></g><g transform="translate(761.01,221.35)"><path stroke="#3498db" fill="#3498db" d="M24,48L113,48C126.3,48,137,37.3,137,24C137,10.7,126.3,0,113,0L24,0C10.7,0,0,10.7,0,24C0,37.3,10.7,48,24,48z" id="shape7"/><text class="st1"><tspan y="30.5" x="46">TCP</tspan></text></g><g transform="translate(761.01,116.85)"><path stroke="#3498db" fill="#3498db" d="M23.5,47L113.5,47C126.5,47,137,36.5,137,23.5C137,10.5,126.5,0,113.5,0L23.5,0C10.5,0,0,10.5,0,23.5C0,36.5,10.5,47,23.5,47z" id="shape8"/><text class="st1"><tspan y="30" x="37">服务器</tspan></text></g><path stroke="#236ea1" fill="none" stroke-width="6.66667" d="M0,0L756,0" transform="translate(229.51,540.85)" id="shape9"/><g transform="translate(541.51,531.85)" id="shape10"><text class="st2"><tspan y="30" x="38">以太网</tspan></text></g><g transform="translate(393.01,140.35)" id="shape11"><path stroke="#236ea1" fill="none" stroke-width="1.33333" stroke-dasharray="11,5" d="M9.2,0L358.8,0"/><path stroke="#236ea1" fill="#236ea1" stroke-width="1" stroke-linecap="round" d="M9.2,4.6L0,0L9.2,-4.6L9.2,4.6"/><path stroke="#236ea1" fill="#236ea1" stroke-width="1" stroke-linecap="round" d="M358.8,-4.6L368,0L358.8,4.6L358.8,-4.6"/></g><g transform="translate(393.01,245.35)" id="shape12"><path stroke="#236ea1" fill="none" stroke-width="1.33333" stroke-dasharray="11,5" d="M9.2,0L358.8,0"/><path stroke="#236ea1" fill="#236ea1" stroke-width="1" stroke-linecap="round" d="M9.2,4.6L0,0L9.2,-4.6L9.2,4.6"/><path stroke="#236ea1" fill="#236ea1" stroke-width="1" stroke-linecap="round" d="M358.8,-4.6L368,0L358.8,4.6L358.8,-4.6"/></g><g transform="translate(393.01,348.85)" id="shape13"><path stroke="#236ea1" fill="none" stroke-width="1.33333" stroke-dasharray="11,5" d="M9.2,0L358.8,0"/><path stroke="#236ea1" fill="#236ea1" stroke-width="1" stroke-linecap="round" d="M9.2,4.6L0,0L9.2,-4.6L9.2,4.6"/><path stroke="#236ea1" fill="#236ea1" stroke-width="1" stroke-linecap="round" d="M358.8,-4.6L368,0L358.8,4.6L358.8,-4.6"/></g><g transform="translate(393.01,450.85)" id="shape14"><path stroke="#236ea1" fill="none" stroke-width="1.33333" stroke-dasharray="11,5" d="M9.2,0L358.8,0"/><path stroke="#236ea1" fill="#236ea1" stroke-width="1" stroke-linecap="round" d="M9.2,4.6L0,0L9.2,-4.6L9.2,4.6"/><path stroke="#236ea1" fill="#236ea1" stroke-width="1" stroke-linecap="round" d="M358.8,-4.6L368,0L358.8,4.6L358.8,-4.6"/></g><g transform="matrix(0,1,-1,0,324.5,163.8)" id="shape15"><path stroke="#16a58a" fill="none" stroke-width="2" d="M11.3,0L46.2,0"/><path stroke="#16a58a" fill="#16a58a" stroke-width="1" stroke-linecap="round" d="M0,0L9.8,5.7C10.8,4,11.3,2.1,11.3,0C11.3,-2.1,10.8,-4,9.8,-5.7L0,0"/><path stroke="#16a58a" fill="#16a58a" stroke-width="1" stroke-linecap="round" d="M57.5,0L47.7,-5.7C46.7,-4,46.2,-2.1,46.2,0C46.2,2.1,46.7,4,47.7,5.7L57.5,0"/></g><g transform="matrix(0,1,-1,0,324.5,269.4)" id="shape16"><path stroke="#16a58a" fill="none" stroke-width="2" d="M11.3,0L46.2,0"/><path stroke="#16a58a" fill="#16a58a" stroke-width="1" stroke-linecap="round" d="M0,0L9.8,5.7C10.8,4,11.3,2.1,11.3,0C11.3,-2.1,10.8,-4,9.8,-5.7L0,0"/><path stroke="#16a58a" fill="#16a58a" stroke-width="1" stroke-linecap="round" d="M57.5,0L47.7,-5.7C46.7,-4,46.2,-2.1,46.2,0C46.2,2.1,46.7,4,47.7,5.7L57.5,0"/></g><g transform="matrix(0,1,-1,0,324.5,370.9)" id="shape17"><path stroke="#16a58a" fill="none" stroke-width="2" d="M11.3,0L46.2,0"/><path stroke="#16a58a" fill="#16a58a" stroke-width="1" stroke-linecap="round" d="M0,0L9.8,5.7C10.8,4,11.3,2.1,11.3,0C11.3,-2.1,10.8,-4,9.8,-5.7L0,0"/><path stroke="#16a58a" fill="#16a58a" stroke-width="1" stroke-linecap="round" d="M57.5,0L47.7,-5.7C46.7,-4,46.2,-2.1,46.2,0C46.2,2.1,46.7,4,47.7,5.7L57.5,0"/></g><g transform="matrix(0,1,-1,0,829.5,163.8)" id="shape18"><path stroke="#16a58a" fill="none" stroke-width="2" d="M11.3,0L46.2,0"/><path stroke="#16a58a" fill="#16a58a" stroke-width="1" stroke-linecap="round" d="M0,0L9.8,5.7C10.8,4,11.3,2.1,11.3,0C11.3,-2.1,10.8,-4,9.8,-5.7L0,0"/><path stroke="#16a58a" fill="#16a58a" stroke-width="1" stroke-linecap="round" d="M57.5,0L47.7,-5.7C46.7,-4,46.2,-2.1,46.2,0C46.2,2.1,46.7,4,47.7,5.7L57.5,0"/></g><g transform="matrix(0,1,-1,0,829.5,269.4)" id="shape19"><path stroke="#16a58a" fill="none" stroke-width="2" d="M11.3,0L46.2,0"/><path stroke="#16a58a" fill="#16a58a" stroke-width="1" stroke-linecap="round" d="M0,0L9.8,5.7C10.8,4,11.3,2.1,11.3,0C11.3,-2.1,10.8,-4,9.8,-5.7L0,0"/><path stroke="#16a58a" fill="#16a58a" stroke-width="1" stroke-linecap="round" d="M57.5,0L47.7,-5.7C46.7,-4,46.2,-2.1,46.2,0C46.2,2.1,46.7,4,47.7,5.7L57.5,0"/></g><g transform="matrix(0,1,-1,0,829.5,370.9)" id="shape20"><path stroke="#16a58a" fill="none" stroke-width="2" d="M11.3,0L46.2,0"/><path stroke="#16a58a" fill="#16a58a" stroke-width="1" stroke-linecap="round" d="M0,0L9.8,5.7C10.8,4,11.3,2.1,11.3,0C11.3,-2.1,10.8,-4,9.8,-5.7L0,0"/><path stroke="#16a58a" fill="#16a58a" stroke-width="1" stroke-linecap="round" d="M57.5,0L47.7,-5.7C46.7,-4,46.2,-2.1,46.2,0C46.2,2.1,46.7,4,47.7,5.7L57.5,0"/></g><path stroke="#16a58a" fill="none" stroke-width="1.33333" d="M0,0L63.5,0" transform="matrix(0,1,-1,0,324.5,473.4)" id="shape21"/><path stroke="#16a58a" fill="none" stroke-width="1.33333" d="M0,0L67.5,0" transform="matrix(0,1,-1,0,829.5,473.4)" id="shape22"/><g transform="translate(486.27,96.85)" id="shape23"><text class="st3"><tspan y="34" x="31">应用协议</tspan></text></g><g transform="translate(486.27,209.85)" id="shape24"><text class="st3"><tspan y="30" x="34">TCP协议</tspan></text></g><g transform="translate(471.77,304.85)" id="shape25"><text class="st4"><tspan y="34.5" x="58">IP协议</tspan></text></g><g transform="translate(464.77,408.85)" id="shape26"><text class="st3"><tspan y="34" x="47">以太网协议</tspan></text></g><path stroke="#000000" fill="none" d="M19,0C19,0,9.4,1.3,9.4,5.1L9.4,25.4C9.4,25.4,8.2,27,6,28.3C3.8,29.7,0,30.4,0,30.4C0,30.4,4,31.1,6,32.3C8.4,33.7,9.4,35.4,9.4,35.4L9.4,57C9.4,57,11,61,19,61" transform="translate(182.01,106.85)" id="shape27"/><g transform="translate(75.51,116.85)" id="shape28"><text class="st5"><tspan y="27.5" x="8">用户进程</tspan></text></g><path stroke="#000000" fill="none" d="M18.5,0C18.5,0,9.2,3.8,9.2,14.6L9.2,72.4C9.2,72.4,8,77,5.9,80.8C3.7,84.7,0,86.7,0,86.7C0,86.7,3.9,88.7,5.9,92.1C8.1,96,9.2,101.1,9.2,101.1L9.2,162.6C9.2,162.6,10.7,174,18.5,174" transform="translate(182.51,209.85)" id="shape29"/><g transform="translate(76.51,258.85)" id="shape30"><text class="st6"><tspan y="32" x="8">内核中的</tspan><tspan y="57" x="18">协议栈</tspan></text></g><g transform="translate(914.01,111.85)" id="shape31"><text class="st7"><tspan y="35" x="35">应用层</tspan></text></g><g transform="translate(926.01,207.85)" id="shape32"><text class="st7"><tspan y="44" x="23">传输层</tspan></text></g><g transform="translate(919.01,313.35)" id="shape33"><text class="st7"><tspan y="42" x="30">网络层</tspan></text></g><g transform="translate(924.01,410.85)" id="shape34"><text class="st7"><tspan y="46.5" x="4">数据链路层</tspan></text></g><g transform="translate(253.51,606.85)" id="shape35"><text class="st8"><tspan y="51.5" x="141">客户与服务器使用TCP在同一个以太网中通信</tspan></text></g></g></svg>