<svg xmlns="http://www.w3.org/2000/svg" xmlns:xlink="http://www.w3.org/1999/xlink" viewBox="0 0 1132 804" height="804" xmlns:ev="http://www.w3.org/2001/xml-events" width="1132"><style type="text/css"><![CDATA[
.st3 {fill:#000000;font-family:宋体;font-size:14pt}
.st7 {fill:#000000;font-family:宋体;font-size:16pt}
.st2 {fill:#118972;font-family:宋体;font-size:14pt}
.st5 {fill:#1f6391;font-family:宋体;font-size:14pt}
.st4 {fill:#ff0000;font-family:宋体;font-size:14pt}
.st1 {fill:#ffffff;font-family:宋体;font-size:14pt}
.st6 {font-size:10pt}
]]></style><defs/><g id="page1" transform="translate(5,5)"><rect height="794" x="0" width="1123" stroke="#808080" y="0" fill="#ffffff"/><g transform="translate(153.51,141.85)"><path id="shape1" d="M180,56L180,0L0,0L0,56L180,56z" stroke="#3498db" fill="#3498db"/><text class="st1"><tspan x="62" y="34">应用层</tspan></text></g><g transform="translate(153.51,198.85)"><path id="shape2" d="M180,56L180,0L0,0L0,56L180,56z" stroke="#3498db" fill="#7eccb6"/><text class="st1"><tspan x="62" y="34">表示层</tspan></text></g><g transform="translate(153.51,255.85)"><path id="shape3" d="M180,56L180,0L0,0L0,56L180,56z" stroke="#3498db" fill="#ebbbc8"/><text class="st1"><tspan x="62" y="34">会话层</tspan></text></g><g transform="translate(153.51,312.85)"><path id="shape4" d="M180,56L180,0L0,0L0,56L180,56z" stroke="#3498db" fill="#d26c2a"/><text class="st1"><tspan x="62" y="34">传输层</tspan></text></g><g transform="translate(153.51,369.85)"><path id="shape5" d="M180,56L180,0L0,0L0,56L180,56z" stroke="#3498db" fill="#c26383"/><text class="st1"><tspan x="62" y="34">网络层</tspan></text></g><g transform="translate(153.51,426.85)"><path id="shape6" d="M180,56L180,0L0,0L0,56L180,56z" stroke="#3498db" fill="#002060"/><text class="st1"><tspan x="43" y="34">数据链路层</tspan></text></g><g transform="translate(153.51,483.85)"><path id="shape7" d="M180,56L180,0L0,0L0,56L180,56z" stroke="#3498db" fill="#c9d0d0"/><text class="st1"><tspan x="62" y="34">物理层</tspan></text></g><path id="shape8" d="M0,0L180,0" stroke-width="6.66667" transform="translate(153.51,311.85)" stroke="#191919" fill="none"/><path id="shape9" d="M0,0L179,0" stroke-width="6.66667" transform="translate(408.51,311.85)" stroke="#191919" fill="none"/><path id="shape10" d="M0,0L179,0" stroke-width="6.66667" transform="translate(815.51,311.85)" stroke="#191919" fill="none"/><g transform="translate(408.51,141.85)"><path id="shape11" d="M180,170L180,0L0,0L0,170L180,170z" stroke="#abdacc" fill="#aecaea"/><text class="st1"><tspan x="62" y="91">应用层</tspan></text></g><g transform="translate(407.51,369.85)"><path id="shape12" d="M180,56L180,0L0,0L0,56L180,56z" stroke="#3498db" fill="#c26383"/><text class="st1"><tspan x="37" y="34">IPv4、IPv6</tspan></text></g><g transform="translate(407.51,426.85)"><path id="shape13" d="M180,112L180,0L0,0L0,112L180,112z" stroke="#3498db" fill="#cce7df"/><text class="st2"><tspan x="52" y="51">设备驱动</tspan><tspan x="43" y="73">程序和硬件</tspan></text></g><path id="shape14" d="M0,0L57,0" stroke-width="2.66667" transform="matrix(0,1,-1,0,470.5,311.9)" stroke="#236ea1" fill="none"/><path id="shape15" d="M0,0L57,0" stroke-width="2.66667" transform="matrix(0,1,-1,0,526.5,311.9)" stroke="#236ea1" fill="none"/><g transform="translate(408.51,312.85)"><path id="shape16" d="M61,56L61,0L0,0L0,56L61,56z" stroke="#f8d7cd" fill="#f8d7cd"/><text class="st1"><tspan x="11" y="34">TCP</tspan></text></g><g transform="translate(526.51,312.85)"><path id="shape17" d="M61,56L61,0L0,0L0,56L61,56z" stroke="#3498db" fill="#ffe3cb"/><text class="st1"><tspan x="9" y="34">UDP</tspan></text></g><g id="shape18" transform="translate(607.51,316.85)"><path d="M13.1,0L80,0" stroke-width="2.66667" stroke="#236ea1" fill="none"/><path d="M0,0L11.3,6.5C12.4,4.6,13.1,2.4,13.1,0C13.1,-2.4,12.4,-4.6,11.3,-6.5L0,0" stroke-width="1" stroke="#236ea1" stroke-linecap="round" fill="#236ea1"/></g><g id="shape19" transform="translate(670.51,269.35)"><text class="st3"><tspan x="17" y="37.5">套接字</tspan><tspan x="28" y="59.5">XTI</tspan></text></g><g id="shape20" transform="matrix(0,1,-1,0,848.5,259.9)"><path d="M9.6,0L94.4,0" stroke-width="2.66667" stroke="#ff0000" fill="none"/><path d="M0,0L11.3,6.5C10.2,4.6,9.6,2.4,9.6,0C9.6,-2.4,10.2,-4.6,11.3,-6.5L0,0" stroke-width="1" stroke="#ff0000" stroke-linecap="round" fill="#ff0000"/><path d="M104,0L92.7,-6.5C93.8,-4.6,94.4,-2.4,94.4,0C94.4,2.4,93.8,4.6,92.7,6.5L104,0" stroke-width="1" stroke="#ff0000" stroke-linecap="round" fill="#ff0000"/></g><g id="shape21" transform="matrix(0,1,-1,0,937.5,202.9)"><path d="M9.6,0L217.4,0" stroke-width="2.66667" stroke="#00b050" fill="none"/><path d="M0,0L11.3,6.5C10.2,4.6,9.6,2.4,9.6,0C9.6,-2.4,10.2,-4.6,11.3,-6.5L0,0" stroke-width="1" stroke="#00b050" stroke-linecap="round" fill="#00b050"/><path d="M227,0L215.7,-6.5C216.8,-4.6,217.4,-2.4,217.4,0C217.4,2.4,216.8,4.6,215.7,6.5L227,0" stroke-width="1" stroke="#00b050" stroke-linecap="round" fill="#00b050"/></g><g id="shape22" transform="translate(777.51,193.85)"><text class="st4"><tspan x="28" y="36.5">用户进程</tspan></text></g><g id="shape23" transform="translate(810.51,369.85)"><text class="st4"><tspan x="22" y="27.5">内核</tspan></text></g><g id="shape24" transform="translate(881.51,141.85)"><text class="st2"><tspan x="9" y="34">应用层细节</tspan></text></g><g id="shape25" transform="translate(860.01,426.85)"><text class="st2"><tspan x="40" y="41">通信细节</tspan></text></g><g id="shape26" transform="translate(106.51,500.85)"><text class="st5"><tspan class="st6" x="12" y="17.5">1</tspan></text></g><g id="shape27" transform="translate(106.51,440.85)"><text class="st5"><tspan x="10" y="20">2</tspan></text></g><g id="shape28" transform="translate(106.51,383.85)"><text class="st5"><tspan x="10" y="20">3</tspan></text></g><g id="shape29" transform="translate(106.51,326.85)"><text class="st5"><tspan x="10" y="20">4</tspan></text></g><g id="shape30" transform="translate(106.51,269.35)"><text class="st5"><tspan x="10" y="20">5</tspan></text></g><g id="shape31" transform="translate(106.51,212.85)"><text class="st5"><tspan x="10" y="20">6</tspan></text></g><g id="shape32" transform="translate(106.51,155.85)"><text class="st5"><tspan x="10" y="20">7</tspan></text></g><g id="shape33" transform="translate(356.51,604.85)"><text class="st7"><tspan x="43" y="30">图1-3 OSI模型和网际协议族中的各层</tspan></text></g></g></svg>