<svg height="804" xmlns:ev="http://www.w3.org/2001/xml-events" xmlns="http://www.w3.org/2000/svg" width="1132" viewBox="0 0 1132 804" xmlns:xlink="http://www.w3.org/1999/xlink"><style type="text/css"><![CDATA[
.st4 {fill:#00b050;font-family:宋体;font-size:14pt}
.st1 {fill:#303030;font-family:宋体;font-size:12pt}
.st3 {fill:#303030;font-family:宋体;font-size:14pt;font-weight:bold}
.st2 {fill:#303030;font-family:宋体;font-size:14pt}
]]></style><defs/><g transform="translate(5,5)" id="page1"><rect height="794" stroke="#808080" x="0" y="0" fill="#ffffff" width="1123"/><g transform="translate(127.16,55.6)"><g id="shape1"><path fill-opacity="0.08" d="M75.6,53L75.6,2L2,2L2,53L75.6,53z" fill="#000000"/><path stroke="#6d6d6d" d="M73.6,51L73.6,0L0,0L0,51L73.6,51z" fill="#c0b8ce"/></g><text class="st1"><tspan x="26.3" y="20.5">m-</tspan><tspan x="10.3" y="39.5">routed</tspan></text></g><g transform="translate(222.38,55.6)"><g id="shape2"><path fill-opacity="0.08" d="M68.3,53L68.3,2L2,2L2,53L68.3,53z" fill="#000000"/><path stroke="#6d6d6d" d="M66.3,51L66.3,0L0,0L0,51L66.3,51z" fill="#c9c9c9"/></g><text class="st1"><tspan x="15.1" y="30">ping</tspan></text></g><g transform="translate(395.76,55.6)"><g id="shape3"><path fill-opacity="0.08" d="M68.3,53L68.3,2L2,2L2,53L68.3,53z" fill="#000000"/><path stroke="#6d6d6d" d="M66.3,51L66.3,0L0,0L0,51L66.3,51z" fill="#d0e3ea"/></g><text class="st1"><tspan x="17.1" y="30">应用</tspan></text></g><g transform="translate(482.46,55.6)"><g id="shape4"><path fill-opacity="0.08" d="M68.3,53L68.3,2L2,2L2,53L68.3,53z" fill="#000000"/><path stroke="#6d6d6d" d="M66.3,51L66.3,0L0,0L0,51L66.3,51z" fill="#d0e3ea"/></g><text class="st1"><tspan x="17.1" y="30">应用</tspan></text></g><g transform="translate(569.15,55.6)"><g id="shape5"><path fill-opacity="0.08" d="M68.3,53L68.3,2L2,2L2,53L68.3,53z" fill="#000000"/><path stroke="#6d6d6d" d="M66.3,51L66.3,0L0,0L0,51L66.3,51z" fill="#d0e3ea"/></g><text class="st2"><tspan x="14.1" y="31.5">应用</tspan></text></g><g transform="translate(655.84,55.6)"><g id="shape6"><path fill-opacity="0.08" d="M68.3,53L68.3,2L2,2L2,53L68.3,53z" fill="#000000"/><path stroke="#6d6d6d" d="M66.3,51L66.3,0L0,0L0,51L66.3,51z" fill="#d0e3ea"/></g><text class="st2"><tspan x="14.1" y="31.5">应用</tspan></text></g><g transform="translate(742.53,55.6)"><g id="shape7"><path fill-opacity="0.08" d="M68.3,53L68.3,2L2,2L2,53L68.3,53z" fill="#000000"/><path stroke="#6d6d6d" d="M66.3,51L66.3,0L0,0L0,51L66.3,51z" fill="#d0e3ea"/></g><text class="st2"><tspan x="14.1" y="31.5">应用</tspan></text></g><g transform="translate(829.23,55.6)"><g id="shape8"><path fill-opacity="0.08" d="M68.3,53L68.3,2L2,2L2,53L68.3,53z" fill="#000000"/><path stroke="#6d6d6d" d="M66.3,51L66.3,0L0,0L0,51L66.3,51z" fill="#d0e3ea"/></g><text class="st2"><tspan x="14.1" y="31.5">应用</tspan></text></g><g transform="translate(39.26,55.6)"><g id="shape9"><path fill-opacity="0.08" d="M68.3,53L68.3,2L2,2L2,53L68.3,53z" fill="#000000"/><path stroke="#6d6d6d" d="M66.3,51L66.3,0L0,0L0,51L66.3,51z" fill="#abb1bf"/></g><text class="st1"><tspan x="17.1" y="20.5">tcp-</tspan><tspan x="10.1" y="39.5">dump</tspan></text></g><g transform="translate(915.92,55.6)"><g id="shape10"><path fill-opacity="0.08" d="M69.3,53L69.3,2L2,2L2,53L69.3,53z" fill="#000000"/><path stroke="#6d6d6d" d="M67.3,51L67.3,0L0,0L0,51L67.3,51z" fill="#cbdab5"/></g><text class="st1"><tspan x="10.2" y="20.5">trace-</tspan><tspan x="12.2" y="39.5">route</tspan></text></g><g transform="translate(1003.7,55.6)"><g id="shape11"><path fill-opacity="0.08" d="M68.3,53L68.3,2L2,2L2,53L68.3,53z" fill="#000000"/><path stroke="#6d6d6d" d="M66.3,51L66.3,0L0,0L0,51L66.3,51z" fill="#c9c9c9"/></g><text class="st1"><tspan x="15.1" y="30">ping</tspan></text></g><g transform="translate(308.53,55.6)"><g id="shape12"><path fill-opacity="0.08" d="M69.3,53L69.3,2L2,2L2,53L69.3,53z" fill="#000000"/><path stroke="#6d6d6d" d="M67.3,51L67.3,0L0,0L0,51L67.3,51z" fill="#cbdab5"/></g><text class="st1"><tspan x="10.2" y="20.5">trace-</tspan><tspan x="12.2" y="39.5">route</tspan></text></g><g transform="translate(421.26,223.1)"><g id="shape13"><path fill-opacity="0.08" d="M96,45L96,2L2,2L2,45L96,45z" fill="#000000"/><path d="M94,43L94,0L0,0L0,43L94,43z" fill="#4197ae"/><path stroke="#6d6d6d" d="M94,43L94,0L0,0L0,43L94,43zM14,43L14,0L14,43zM80,43L80,0L80,43z" fill="none"/></g><text class="st3"><tspan x="25" y="27.5">TCP</tspan></text></g><g transform="translate(618.09,192.1)"><g id="shape14"><path fill-opacity="0.08" d="M106,47L106,2L2,2L2,47L106,47z" fill="#000000"/><path d="M104,45L104,0L0,0L0,45L104,45z" fill="#a94543"/><path stroke="#6d6d6d" d="M104,45L104,0L0,0L0,45L104,45zM14,45L14,0L14,45zM90,45L90,0L90,45z" fill="none"/></g><text class="st3"><tspan x="23" y="28.5">SCTP</tspan></text></g><g transform="translate(842.26,208.1)"><g id="shape15"><path fill-opacity="0.08" d="M96,41L96,2L2,2L2,41L96,41z" fill="#000000"/><path d="M94,39L94,0L0,0L0,39L94,39z" fill="#4471a6"/><path stroke="#6d6d6d" d="M94,39L94,0L0,0L0,39L94,39zM14,39L14,0L14,39zM80,39L80,0L80,39z" fill="none"/></g><text class="st3"><tspan x="27" y="25.5">udp</tspan></text></g><g transform="translate(256.26,342.1)"><g id="shape16"><path fill-opacity="0.08" d="M82,58L82,2L2,2L2,58L82,58z" fill="#000000"/><path stroke="#6d6d6d" d="M80,56L80,0L0,0L0,56L80,56z" fill="#70578e"/></g><text class="st3"><tspan x="10" y="34">ICMP</tspan></text></g><g transform="translate(327.26,436.1)"><g id="shape17"><path fill-opacity="0.08" d="M68,58L68,2L2,2L2,58L68,58z" fill="#000000"/><path stroke="#6d6d6d" d="M66,56L66,0L0,0L0,56L66,56z" fill="#da833d"/></g><text class="st3"><tspan x="9" y="34">IPv4</tspan></text></g><g transform="translate(127.16,418.1)"><g id="shape18"><path fill-opacity="0.08" d="M79.1,58L79.1,2L2,2L2,58L79.1,58z" fill="#000000"/><path stroke="#6d6d6d" d="M77.1,56L77.1,0L0,0L0,56L77.1,56z" fill="#70578e"/></g><text class="st3"><tspan x="8.1" y="34">IGMP</tspan></text></g><g transform="translate(902.59,436.1)"><g id="shape19"><path fill-opacity="0.08" d="M68.7,58L68.7,2L2,2L2,58L68.7,58z" fill="#000000"/><path stroke="#6d6d6d" d="M66.7,56L66.7,0L0,0L0,56L66.7,56z" fill="#da833d"/></g><text class="st3"><tspan x="9.3" y="34">IPv6</tspan></text></g><g transform="translate(1003.7,436.1)"><g id="shape20"><path fill-opacity="0.08" d="M81.6,58L81.6,2L2,2L2,58L81.6,58z" fill="#000000"/><path stroke="#6d6d6d" d="M79.6,56L79.6,0L0,0L0,56L79.6,56z" fill="#70578e"/></g><text class="st3"><tspan x="10.3" y="23">ICMP</tspan><tspan x="27.3" y="45">v6</tspan></text></g><g transform="translate(43.26,620.1)"><g id="shape21"><path fill-opacity="0.08" d="M72,52L72,2L2,2L2,52L72,52z" fill="#000000"/><path stroke="#6d6d6d" d="M70,50L70,0L0,0L0,50L70,50z" fill="#838383"/></g><text class="st2"><tspan x="15" y="20">BPF</tspan><tspan x="11" y="42">DLPI</tspan></text></g><g transform="translate(522.52,620.1)"><g id="shape22"><path fill-opacity="0.08" d="M72,52L72,2L2,2L2,52L72,52z" fill="#000000"/><path stroke="#6d6d6d" d="M70,50L70,0L0,0L0,50L70,50z" fill="#ff0000"/></g><text class="st2"><tspan x="16" y="20">数据</tspan><tspan x="16" y="42">链路</tspan></text></g><path stroke="#6d6d6d" transform="translate(133.26,152.1)" stroke-width="1.33333" stroke-dasharray="11,5" d="M0,0L945,0" id="shape23" fill="none"/><g transform="translate(95.26,128.6)" id="shape24"><text class="st1"><tspan x="12" y="28">API</tspan></text></g><path stroke="#6d6d6d" transform="matrix(0.01,1,-1,0.01,72.4,106.6)" stroke-width="1.33333" d="M0,0L513.5,0" id="shape25" fill="none"/><path stroke="#6d6d6d" transform="translate(113.26,645.1)" stroke-width="1.33333" d="M0,0L409.3,0" id="shape26" fill="none"/><path stroke="#6d6d6d" transform="matrix(0,1,-1,0,557.5,670.1)" stroke-width="1.33333" d="M0,0L68,0" id="shape27" fill="none"/><path stroke="#6d6d6d" transform="matrix(0.01,1,-1,0.01,163.9,106.6)" stroke-width="1.33333" d="M0,0L311.5,0" id="shape28" fill="none"/><path stroke="#6d6d6d" transform="matrix(0.17,0.99,-0.99,0.17,255.5,106.6)" stroke-width="1.33333" d="M0,0L239,0" id="shape29" fill="none"/><path stroke="#6d6d6d" transform="matrix(-0.19,0.98,-0.98,-0.19,342.2,106.6)" stroke-width="1.33333" d="M0,0L239.9,0" id="shape30" fill="none"/><path stroke="#6d6d6d" transform="matrix(0.05,1,-1,0.05,342.2,106.6)" stroke-width="1.33333" d="M0,0L330,0" id="shape31" fill="none"/><path stroke="#6d6d6d" transform="matrix(0.34,0.94,-0.94,0.34,336.3,370.1)" stroke-width="1.33333" d="M0,0L70.2,0" id="shape32" fill="none"/><path stroke="#6d6d6d" transform="matrix(0.99,0.14,-0.14,0.99,204.3,446.1)" stroke-width="1.33333" d="M0,0L124.3,0" id="shape33" fill="none"/><path stroke="#6d6d6d" transform="matrix(0.32,0.95,-0.95,0.32,428.9,106.6)" stroke-width="1.33333" d="M0,0L123,0" id="shape34" fill="none"/><path stroke="#6d6d6d" transform="matrix(0.97,0.26,-0.26,0.97,515.6,106.6)" stroke-width="1.33333" d="M0,0L387.2,0" id="shape35" fill="none"/><path stroke="#6d6d6d" transform="matrix(0.62,0.78,-0.78,0.62,602.3,106.6)" stroke-width="1.33333" d="M0,0L109.1,0" id="shape36" fill="none"/><path stroke="#6d6d6d" transform="matrix(-0.22,0.98,-0.98,-0.22,689,106.6)" stroke-width="1.33333" d="M0,0L87.6,0" id="shape37" fill="none"/><path stroke="#6d6d6d" transform="matrix(-0.94,0.35,-0.35,-0.94,775.7,106.6)" stroke-width="1.33333" d="M0,0L328.7,0" id="shape38" fill="none"/><path stroke="#6d6d6d" transform="matrix(0.26,0.97,-0.97,0.26,862.4,106.6)" d="M0,0L105,0" id="shape39" fill="none"/><path stroke="#6d6d6d" transform="matrix(-0.04,1,-1,-0.04,949.6,106.6)" stroke-width="1.33333" d="M0,0L329.8,0" id="shape40" fill="none"/><path stroke="#6d6d6d" transform="matrix(0.27,0.96,-0.96,0.27,949.6,106.6)" stroke-width="1.33333" d="M0,0L342.6,0" id="shape41" fill="none"/><path stroke="#6d6d6d" transform="matrix(0.02,1,-1,0.02,1036.8,106.6)" stroke-width="1.33333" d="M0,0L329.6,0" id="shape42" fill="none"/><path stroke="#6d6d6d" transform="matrix(0.69,0.72,-0.72,0.69,722.1,214.6)" stroke-width="1.33333" d="M0,0L307.9,0" id="shape43" fill="none"/><path stroke="#6d6d6d" transform="matrix(0.24,0.97,-0.97,0.24,889.3,247.1)" stroke-width="1.33333" d="M0,0L194.7,0" id="shape44" fill="none"/><path stroke="#6d6d6d" transform="matrix(-0.92,0.4,-0.4,-0.92,842.3,227.6)" stroke-width="1.33333" d="M0,0L525.2,0" id="shape45" fill="none"/><path stroke="#6d6d6d" transform="matrix(0.91,0.41,-0.41,0.91,515.3,244.6)" stroke-width="1.33333" d="M0,0L462.2,0" id="shape46" fill="none"/><path stroke="#6d6d6d" transform="matrix(-0.3,0.95,-0.95,-0.3,421.3,244.6)" stroke-width="1.33333" d="M0,0L201,0" id="shape47" fill="none"/><path stroke="#6d6d6d" transform="matrix(-0.76,0.65,-0.65,-0.76,618.1,214.6)" stroke-width="1.33333" d="M0,0L339.9,0" id="shape48" fill="none"/><path stroke="#6d6d6d" transform="translate(969.26,464.1)" stroke-width="1.33333" d="M0,0L34.4,0" id="shape49" fill="none"/><path stroke="#6d6d6d" transform="matrix(0.84,0.54,-0.54,0.84,360.3,492.1)" stroke-width="1.33333" d="M0,0L235.1,0" id="shape50" fill="none"/><path stroke="#6d6d6d" transform="matrix(-0.95,0.32,-0.32,-0.95,935.9,492.1)" stroke-width="1.33333" d="M0,0L399.5,0" id="shape51" fill="none"/><g transform="translate(193.16,540.1)"><g id="shape52"><path fill-opacity="0.08" d="M79.1,58L79.1,2L2,2L2,58L79.1,58z" fill="#000000"/><path stroke="#6d6d6d" d="M77.1,56L77.1,0L0,0L0,56L77.1,56z" fill="#b5cb90"/></g><text class="st3"><tspan x="16.1" y="23">ARP</tspan><tspan x="8.1" y="45">RARP</tspan></text></g><path stroke="#6d6d6d" transform="matrix(0.96,0.29,-0.29,0.96,270.3,568.1)" stroke-width="1.33333" d="M0,0L263.7,0" id="shape53" fill="none"/><g transform="translate(746,657)" id="shape54"><text class="st4"><tspan x="83" y="53">TCP/IP协议概况</tspan></text></g></g></svg>