<svg xmlns:ev="http://www.w3.org/2001/xml-events" height="804" xmlns="http://www.w3.org/2000/svg" xmlns:xlink="http://www.w3.org/1999/xlink" width="1132" viewBox="0 0 1132 804"><style type="text/css"><![CDATA[
.st11 {fill:#000000;font-family:宋体;font-size:12pt}
.st15 {fill:#0070c0;font-family:宋体;font-size:12pt}
.st17 {fill:#00b050;font-family:宋体;font-size:12pt}
.st19 {fill:#00b0f0;font-family:宋体;font-size:12pt}
.st12 {fill:#00b0f0}
.st13 {fill:#118972;font-family:宋体;font-size:12pt}
.st3 {fill:#118972;font-family:宋体;font-size:14pt}
.st14 {fill:#1bbc9d;font-family:宋体;font-size:12pt}
.st6 {fill:#1e768c;font-family:宋体;font-size:12pt}
.st18 {fill:#a2516c;font-family:宋体;font-size:12pt}
.st7 {fill:#a2516c}
.st10 {fill:#c26383}
.st16 {fill:#e19a00;font-family:宋体;font-size:12pt}
.st8 {fill:#e19a00}
.st9 {fill:#ff0000;font-family:宋体;font-size:12pt}
.st5 {fill:#ffffff;font-family:宋体;font-size:10pt}
.st1 {fill:#ffffff;font-family:宋体;font-size:14pt;font-style:italic;font-weight:bold}
.st2 {fill:#ffffff;font-family:宋体;font-size:14pt;font-weight:bold}
.st4 {fill:#ffffff;font-family:宋体;font-size:20pt}
]]></style><defs/><g transform="translate(5,5)" id="page1"><rect y="0" fill="#ffffff" stroke="#808080" height="794" x="0" width="1123"/><g transform="translate(380.22,199.66)"><path fill="#118972" d="M13.2,26.4L97.8,26.4C105.1,26.4,111,20.5,111,13.2C111,5.9,105.1,0,97.8,0L13.2,0C5.9,0,0,5.9,0,13.2C0,20.5,5.9,26.4,13.2,26.4z" stroke="#3498db" id="shape1"/><text class="st1"><tspan y="19.2" x="15">LISTEN</tspan></text></g><g transform="translate(109.96,296.05)"><path fill="#6d7979" d="M13.1,26.2L124.5,26.2C131.7,26.2,137.6,20.3,137.6,13.1C137.6,5.9,131.7,0,124.5,0L13.1,0C5.9,0,0,5.9,0,13.1C0,20.3,5.9,26.2,13.1,26.2z" stroke="#3498db" id="shape2"/><text class="st1"><tspan y="19.1" x="10.3">SYN_RCVD</tspan></text></g><g transform="translate(632.09,296.05)"><path fill="#bed742" d="M14.2,28.5L123.3,28.5C131.2,28.5,137.6,22.1,137.6,14.2C137.6,6.4,131.2,0,123.3,0L14.2,0C6.4,0,0,6.4,0,14.2C0,22.1,6.4,28.5,14.2,28.5z" stroke="#3498db" id="shape3"/><text class="st1"><tspan y="20.2" x="12.3">SYN_SENT</tspan></text></g><g transform="translate(348.48,406.41)"><path fill="#00ae9d" d="M12.5,25.1L162,25.1C168.9,25.1,174.5,19.4,174.5,12.5C174.5,5.6,168.9,0,162,0L12.5,0C5.6,0,0,5.6,0,12.5C0,19.4,5.6,25.1,12.5,25.1z" stroke="#3498db" id="shape4"/><text class="st1"><tspan y="18.5" x="9.3">ESTABLISHED</tspan></text></g><g transform="translate(374.82,79.08)"><g transform="translate(7.75,26.31)"><path fill="#3498db" d="M11.1,22.2L95.2,22.2C101.3,22.2,106.3,17.3,106.3,11.1C106.3,5,101.3,0,95.2,0L11.1,0C5,0,0,5,0,11.1C0,17.3,5,22.2,11.1,22.2z" stroke="#3498db" id="shape5"/><text class="st2"><tspan y="17.1" x="8.2">CLOSED</tspan></text></g><g transform="translate(0,-0)" id="shape6"><text class="st3"><tspan y="18.5" x="32.4">起始点</tspan></text></g></g><g transform="matrix(0.76,0.65,-0.65,0.76,488.9,116.5)" id="shape7"><path fill="none" stroke="#ff0000" d="M0,0L270.6,0" stroke-width="2.66667"/><path stroke-linecap="round" fill="#ff0000" stroke="#ff0000" d="M277.8,0L269.3,-4.9C270.2,-3.5,270.6,-1.8,270.6,0C270.6,1.8,270.2,3.5,269.3,4.9L277.8,0" stroke-width="1"/></g><g transform="matrix(-0.75,0.66,-0.66,-0.75,632.1,310.3)" id="shape8"><path fill="none" stroke="#ff0000" d="M0,0L143.6,0" stroke-width="2.66667"/><path stroke-linecap="round" fill="#ff0000" stroke="#ff0000" d="M150.8,0L142.3,-4.9C143.1,-3.5,143.6,-1.8,143.6,0C143.6,1.8,143.1,3.5,142.3,4.9L150.8,0" stroke-width="1"/></g><g transform="matrix(-0.8,0.6,-0.6,-0.8,348.5,418.9)" id="shape9"><path fill="none" stroke="#ff0000" d="M0,0L207.4,0" stroke-width="2.66667"/><path stroke-linecap="round" fill="#ff0000" stroke="#ff0000" d="M214.5,0L206,-4.9C206.9,-3.5,207.4,-1.8,207.4,0C207.4,1.8,206.9,3.5,206,4.9L214.5,0" stroke-width="1"/></g><g transform="translate(529.31,719.32)" id="shape10"><path fill="none" stroke="#ff0000" d="M0,0L504.8,0" stroke-width="2.66667"/><path stroke-linecap="round" fill="#ff0000" stroke="#ff0000" d="M512,0L503.5,-4.9C504.3,-3.5,504.8,-1.8,504.8,0C504.8,1.8,504.3,3.5,503.5,4.9L512,0" stroke-width="1"/></g><g transform="matrix(0,-1,1,0,1041.3,719.3)" id="shape11"><path fill="none" stroke="#000000" d="M0,0L596.6,0" stroke-width="1.33333"/><path stroke-linecap="round" fill="#000000" stroke="#000000" d="M601.7,0L595.7,-3.5C596.3,-2.4,596.6,-1.3,596.6,0C596.6,1.3,596.3,2.4,595.7,3.5L601.7,0" stroke-width="1"/></g><g transform="translate(488.89,116.51)" id="shape12"><path fill="none" stroke="#000000" d="M5.1,0L553.9,0" stroke-width="1.33333"/><path stroke-linecap="round" fill="#000000" stroke="#000000" d="M0,0L6,3.5C5.4,2.4,5.1,1.3,5.1,0C5.1,-1.3,5.4,-2.4,6,-3.5L0,0" stroke-width="1"/></g><g transform="translate(769.68,310.29)" id="shape13"><path fill="none" stroke="#000000" d="M0,0L263.4,0" stroke-width="1.33333"/><path stroke-linecap="round" fill="#000000" stroke="#000000" d="M268.5,0L262.5,-3.5C263.1,-2.4,263.4,-1.3,263.4,0C263.4,1.3,263.1,2.4,262.5,3.5L268.5,0" stroke-width="1"/></g><g><g><path fill="#476482" d="M0,0L134.7,0L161.9,22.7L134.7,45.4L0,45.4L0,0z" stroke="#476482" id="shape14"/><g transform="translate(134.7,0)" id="shape15"><path fill="#2da2bf" d="M0,0L987.8,0L987.8,45.4L0,45.4L27.2,22.7L0,0z" stroke="#2da2bf"/><text class="st4"><tspan y="31.2" x="87.3">TCP状态转换图</tspan></text></g></g><g transform="translate(0,772.91)"><g id="shape16"><path fill="#2da2bf" d="M0,0L1010.3,.2L1010.3,20.8L0,20.6L0,0z" stroke="#2da2bf"/><text class="st5"><tspan y="13.9" x="489">Company name/Author</tspan></text></g><path fill="#476482" d="M0,0L112.3,.2L112.3,20.8L0,20.6L0,0z" stroke="#476482" transform="translate(1010.27,0)" id="shape17"/></g></g><g transform="matrix(0.92,-0.39,0.39,0.92,220.5,294.5)" id="shape18"><path fill="none" stroke="#000000" d="M0,0L173.8,0" stroke-width="1.33333"/><path stroke-linecap="round" fill="#000000" stroke="#000000" d="M178.9,0L172.9,-3.5C173.5,-2.4,173.8,-1.3,173.8,0C173.8,1.3,173.5,2.4,172.9,3.5L178.9,0" stroke-width="1"/></g><g transform="matrix(-0.92,0.38,-0.38,-0.92,380.2,212.9)" id="shape19"><path fill="none" stroke="#118972" d="M0,0L210.8,0" stroke-width="2.66667"/><path stroke-linecap="round" fill="#118972" stroke="#118972" d="M218,0L209.5,-4.9C210.3,-3.5,210.8,-1.8,210.8,0C210.8,1.8,210.3,3.5,209.5,4.9L218,0" stroke-width="1"/></g><g transform="matrix(-1,-0,0,-1,632.1,310.3)" id="shape20"><path fill="none" stroke="#000000" d="M0,0L379.5,0" stroke-width="1.33333"/><path stroke-linecap="round" fill="#000000" stroke="#000000" d="M384.5,0L378.5,-3.5C379.1,-2.4,379.5,-1.3,379.5,0C379.5,1.3,379.1,2.4,378.5,3.5L384.5,0" stroke-width="1"/></g><g transform="matrix(0,1,-1,0,435.7,127.6)" id="shape21"><path fill="none" stroke="#118972" d="M0,0L64.9,0" stroke-width="2.66667"/><path stroke-linecap="round" fill="#118972" stroke="#118972" d="M72,0L63.6,-4.9C64.4,-3.5,64.9,-1.8,64.9,0C64.9,1.8,64.4,3.5,63.6,4.9L72,0" stroke-width="1"/></g><g transform="matrix(0.9,0.44,-0.44,0.9,178.8,322.2)" id="shape22"><path fill="none" stroke="#118972" d="M0,0L186.7,0" stroke-width="2.66667"/><path stroke-linecap="round" fill="#118972" stroke="#118972" d="M193.9,0L185.4,-4.9C186.2,-3.5,186.7,-1.8,186.7,0C186.7,1.8,186.2,3.5,185.4,4.9L193.9,0" stroke-width="1"/></g><g transform="matrix(1,-0,0,1,523,418.9)" id="shape23"><path fill="none" stroke="#118972" d="M0,0L189.7,0" stroke-width="2.66667"/><path stroke-linecap="round" fill="#118972" stroke="#118972" d="M196.9,0L188.4,-4.9C189.2,-3.5,189.7,-1.8,189.7,0C189.7,1.8,189.2,3.5,188.4,4.9L196.9,0" stroke-width="1"/></g><g transform="translate(865.11,590.47)" id="shape24"><path fill="none" stroke="#118972" d="M0,0L169,0" stroke-width="2.66667"/><path stroke-linecap="round" fill="#118972" stroke="#118972" d="M176.2,0L167.7,-4.9C168.5,-3.5,169,-1.8,169,0C169,1.8,168.5,3.5,167.7,4.9L176.2,0" stroke-width="1"/></g><g transform="translate(306.26,128.85)" id="shape25"><text class="st6"><tspan y="18" x="6" class="st7">应用</tspan><tspan>：被动打开</tspan><tspan y="37" x="16" class="st8">发送</tspan><tspan>：&lt;无></tspan></text></g><g transform="matrix(0.77,0.64,-0.64,0.77,570.2,144.3)" id="shape26"><text class="st9"><tspan y="20.5" x="12" class="st10">应用</tspan><tspan>：主动打开</tspan></text></g><g transform="matrix(0.77,0.63,-0.63,0.77,554.8,170.2)" id="shape27"><text class="st9"><tspan y="19.5" x="7" class="st8">发送</tspan><tspan>：SNY</tspan></text></g><g transform="translate(381.25,280.85)" id="shape28"><text class="st11"><tspan y="19.5" x="13" class="st12">接受</tspan><tspan>：SYN</tspan></text></g><g transform="translate(369.32,310.85)" id="shape29"><text class="st11"><tspan y="17" x="7" class="st8">发送</tspan><tspan>：SYN，ACK</tspan><tspan y="36" x="43">同时打开</tspan></text></g><g transform="matrix(0.92,-0.4,0.4,0.92,164.8,267)" id="shape30"><text class="st13"><tspan y="23.5" x="11" class="st12">接受</tspan><tspan>:SYN：</tspan><tspan class="st8">发送</tspan><tspan>:SYN,ACK</tspan></text></g><g transform="matrix(0.93,-0.37,0.37,0.93,261.2,274.9)" id="shape31"><text class="st11"><tspan y="19" x="11" class="st12">接受</tspan><tspan>：RST</tspan></text></g><g transform="matrix(0.88,0.47,-0.47,0.88,245.8,328.1)" id="shape32"><text class="st13"><tspan y="17" x="11" class="st12">接受</tspan><tspan>：ACK</tspan></text></g><g transform="matrix(0.89,0.46,-0.46,0.89,226.5,341.2)" id="shape33"><text class="st13"><tspan y="20" x="7" class="st8">发送</tspan><tspan>：&lt;无></tspan></text></g><g transform="translate(865.26,280.85)" id="shape34"><text class="st11"><tspan y="19" x="4" class="st10">应用</tspan><tspan>：关闭</tspan></text></g><g transform="translate(882.76,310.85)" id="shape35"><text class="st11"><tspan y="17" x="9">或超时</tspan></text></g><g transform="translate(662.88,320.85)" id="shape36"><text class="st11"><tspan y="21.5" x="6">主动打开</tspan></text></g><g transform="matrix(0.75,-0.66,0.66,0.75,503.9,384.4)" id="shape37"><text class="st9"><tspan y="21" x="6" class="st12">接受</tspan><tspan>:SYN,ACK</tspan></text></g><g transform="matrix(0.75,-0.66,0.66,0.75,531.1,398.4)" id="shape38"><text class="st9"><tspan y="22" x="12" class="st8">发送</tspan><tspan>：ACK</tspan></text></g><g transform="translate(584.26,386.5)" id="shape39"><text class="st14"><tspan y="20" x="11" class="st12">接受</tspan><tspan>：FIN</tspan></text></g><g transform="translate(584.26,418.85)" id="shape40"><text class="st14"><tspan y="21.5" x="9" class="st8">发送</tspan><tspan>：ACK</tspan></text></g><g transform="translate(369.32,433.85)" id="shape41"><text class="st13"><tspan y="18.5" x="14">数据传递状态</tspan></text></g><g transform="matrix(0.82,-0.57,0.57,0.82,193.1,499.6)" id="shape42"><text class="st9"><tspan y="20" x="6" class="st10">应用</tspan><tspan>：关闭</tspan></text></g><g transform="matrix(0.82,-0.58,0.58,0.82,212.7,513.2)" id="shape43"><text class="st9"><tspan y="20" x="6" class="st8">发送</tspan><tspan>：FIN</tspan></text></g><g transform="translate(531.1,598)" id="shape44"><text class="st15"><tspan y="21" x="5">主</tspan><tspan y="40" x="5">动</tspan><tspan y="59" x="5">关</tspan><tspan y="78" x="5">闭</tspan></text></g><g transform="translate(708.95,689.85)" id="shape45"><text class="st9"><tspan y="18.5" x="6">2MSL超时</tspan></text></g><g transform="matrix(1,-0.01,0.01,1,913.5,561.9)" id="shape46"><text class="st13"><tspan y="17" x="11" class="st12">接受</tspan><tspan>：ACK</tspan></text></g><g transform="matrix(1,-0.01,0.01,1,913.5,590.9)" id="shape47"><text class="st13"><tspan y="17" x="13" class="st8">发送</tspan><tspan>:&lt;无></tspan></text></g><g transform="translate(41.26,530.45)"><g transform="translate(2,0)"><path fill="none" stroke-dasharray="11,5" stroke="#3498db" d="M490.8,221.5L490.8,0L0,0L0,221.5L490.8,221.5z" stroke-width="2" id="shape48"/></g><g transform="translate(-0,19.04)"><path fill="#f29952" d="M13.3,26.6L133.5,26.6C140.9,26.6,146.8,20.6,146.8,13.3C146.8,6,140.9,0,133.5,0L13.3,0C6,0,0,6,0,13.3C0,20.6,6,26.6,13.3,26.6z" stroke="#3498db" id="shape49"/><text class="st1"><tspan y="19.3" x="8.4">FIN_WAIT_1</tspan></text></g><g transform="translate(359,19.04)"><path fill="#f9ca31" d="M11.8,23.5L107.3,23.5C113.8,23.5,119.1,18.3,119.1,11.8C119.1,5.3,113.8,0,107.3,0L11.8,0C5.3,0,0,5.3,0,11.8C0,18.3,5.3,23.5,11.8,23.5z" stroke="#3498db" id="shape50"/><text class="st1"><tspan y="17.8" x="9">CLOSING</tspan></text></g><g transform="translate(-0,175.19)"><path fill="#96689f" d="M11.4,22.8L137.4,22.8C143.7,22.8,148.8,17.7,148.8,11.4C148.8,5.1,143.7,0,137.4,0L11.4,0C5.1,0,0,5.1,0,11.4C0,17.7,5.1,22.8,11.4,22.8z" stroke="#3498db" id="shape51"/><text class="st1"><tspan y="17.4" x="9.4">FIN_WAIT_2</tspan></text></g><g transform="translate(339.99,175.19)"><path fill="#30c9f7" d="M13.7,27.4L134.4,27.4C141.9,27.4,148.1,21.2,148.1,13.7C148.1,6.1,141.9,0,134.4,0L13.7,0C6.1,0,0,6.1,0,13.7C0,21.2,6.1,27.4,13.7,27.4z" stroke="#3498db" id="shape52"/><text class="st1"><tspan y="19.7" x="11">TIME_WAIT</tspan></text></g><g transform="matrix(1,-0.01,0.01,1,146.8,32.3)" id="shape53"><path fill="none" stroke="#191919" d="M0,0L207.1,0" stroke-width="1.33333"/><path stroke-linecap="round" fill="#191919" stroke="#191919" d="M212.2,0L206.2,-3.5C206.8,-2.4,207.1,-1.3,207.1,0C207.1,1.3,206.8,2.4,206.2,3.5L212.2,0" stroke-width="1"/></g><g transform="matrix(0.81,0.59,-0.59,0.81,146.8,32.3)" id="shape54"><path fill="none" stroke="#191919" d="M0,0L236.1,0" stroke-width="1.33333"/><path stroke-linecap="round" fill="#191919" stroke="#191919" d="M241.2,0L235.2,-3.5C235.8,-2.4,236.1,-1.3,236.1,0C236.1,1.3,235.8,2.4,235.2,3.5L241.2,0" stroke-width="1"/></g><g transform="matrix(0,1,-1,0,414,42.4)" id="shape55"><path fill="none" stroke="#191919" d="M0,0L127.7,0" stroke-width="1.33333"/><path stroke-linecap="round" fill="#191919" stroke="#191919" d="M132.8,0L126.8,-3.5C127.4,-2.4,127.7,-1.3,127.7,0C127.7,1.3,127.4,2.4,126.8,3.5L132.8,0" stroke-width="1"/></g><g transform="matrix(0.01,1,-1,0.01,73.4,45.6)" id="shape56"><path fill="none" stroke="#ff0000" d="M0,0L122.4,0" stroke-width="2.66667"/><path stroke-linecap="round" fill="#ff0000" stroke="#ff0000" d="M129.6,0L121.1,-4.9C121.9,-3.5,122.4,-1.8,122.4,0C122.4,1.8,121.9,3.5,121.1,4.9L129.6,0" stroke-width="1"/></g><g transform="matrix(1,0.01,-0.01,1,148.8,186.6)" id="shape57"><path fill="none" stroke="#ff0000" d="M0,0L184,0" stroke-width="2.66667"/><path stroke-linecap="round" fill="#ff0000" stroke="#ff0000" d="M191.2,0L182.7,-4.9C183.5,-3.5,184,-1.8,184,0C184,1.8,183.5,3.5,182.7,4.9L191.2,0" stroke-width="1"/></g><g transform="translate(25.19,88.06)" id="shape58"><text class="st9"><tspan y="19.5" x="8" class="st12">接受</tspan><tspan>:</tspan><tspan y="38.5" x="8" class="st8">发送</tspan><tspan>:</tspan></text></g><g transform="translate(69.68,90.06)" id="shape59"><text class="st9"><tspan y="16.5" x="11">ACK</tspan><tspan y="35.5" x="7">&lt;无></tspan></text></g><g transform="translate(175.4,159.4)" id="shape60"><text class="st9"><tspan y="17" x="5" class="st12">接受</tspan><tspan>:FIN</tspan></text></g><g transform="translate(172.4,183.4)" id="shape61"><text class="st9"><tspan y="19" x="5" class="st8">发送</tspan><tspan>:ACK</tspan></text></g><g transform="translate(367.57,87.06)" id="shape62"><text class="st11"><tspan y="19.5" x="8" class="st12">接受</tspan><tspan>:</tspan><tspan y="38.5" x="8" class="st8">发送</tspan><tspan>:</tspan></text></g><g transform="translate(411.72,91.4)" id="shape63"><text class="st11"><tspan y="16.5" x="11">ACK</tspan><tspan y="35.5" x="7">&lt;无></tspan></text></g><g transform="translate(205.88,7.79)" id="shape64"><text class="st11"><tspan y="17" x="5" class="st12">接受</tspan><tspan>:FIN</tspan></text></g><g transform="translate(205.88,27.4)" id="shape65"><text class="st11"><tspan y="19" x="5" class="st8">发送</tspan><tspan>:ACK</tspan></text></g><g transform="translate(373.32,0)" id="shape66"><text class="st16"><tspan y="16" x="9">同时关闭</tspan></text></g><g transform="matrix(0.8,0.59,-0.59,0.8,214,47.5)" id="shape67"><text class="st11"><tspan y="19" x="9" class="st12">接受</tspan><tspan>:FIN,ACK</tspan></text></g><g transform="matrix(0.79,0.61,-0.61,0.79,203.3,77.6)" id="shape68"><text class="st11"><tspan y="18" x="6" class="st8">发送</tspan><tspan>：ACK</tspan></text></g></g><g transform="translate(708.95,378.87)"><g transform="translate(10.88,27.54)"><path fill="#007fcc" d="M11.8,23.5L148.1,23.5C154.6,23.5,159.9,18.3,159.9,11.8C159.9,5.3,154.6,0,148.1,0L11.8,0C5.3,0,0,5.3,0,11.8C0,18.3,5.3,23.5,11.8,23.5z" stroke="#3498db" id="shape69"/><text class="st1"><tspan y="17.8" x="9.4">CLOSE_WAIT</tspan></text></g><g transform="translate(25.5,199.85)"><path fill="#007fcc" d="M11.8,23.5L118.9,23.5C125.4,23.5,130.7,18.3,130.7,11.8C130.7,5.3,125.4,0,118.9,0L11.8,0C5.3,0,0,5.3,0,11.8C0,18.3,5.3,23.5,11.8,23.5z" stroke="#3498db" stroke-width="2.66667" id="shape70"/><text class="st1"><tspan y="17.8" x="9.3">LAST_ACK</tspan></text></g><g transform="matrix(0,1,-1,0,90.8,51.1)" id="shape71"><path fill="none" stroke="#118972" d="M0,0L141.6,0" stroke-width="2.66667"/><path stroke-linecap="round" fill="#118972" stroke="#118972" d="M148.8,0L140.3,-4.9C141.1,-3.5,141.6,-1.8,141.6,0C141.6,1.8,141.1,3.5,140.3,4.9L148.8,0" stroke-width="1"/></g><g transform="translate(0,0)"><path fill="none" stroke-dasharray="6,4" stroke="#1bbc9d" d="M183.1,262.6L183.1,0L0,0L0,262.6L183.1,262.6z" stroke-width="2" id="shape72"/></g><g transform="translate(54.04,264.98)" id="shape73"><text class="st13"><tspan y="16.5" x="6">被动关闭</tspan></text></g><g transform="translate(34.5,94.18)" id="shape74"><text class="st13"><tspan y="21" x="9" class="st10">应用</tspan><tspan>：</tspan><tspan y="40" x="9" class="st8">发送</tspan><tspan>：</tspan></text></g><g transform="translate(81.31,89.18)" id="shape75"><text class="st13"><tspan y="23.5" x="13.5">关闭</tspan><tspan y="42.5" x="13.5">FIN</tspan></text></g></g><g transform="translate(61.26,86.85)" id="shape76"><path fill="none" stroke="#ff0000" d="M0,0L36.8,0" stroke-width="2.66667"/><path stroke-linecap="round" fill="#ff0000" stroke="#ff0000" d="M44,0L35.5,-4.9C36.4,-3.5,36.8,-1.8,36.8,0C36.8,1.8,36.4,3.5,35.5,4.9L44,0" stroke-width="1"/></g><g transform="translate(61.26,110.85)" id="shape77"><path fill="none" stroke="#118972" d="M0,0L36.8,0" stroke-width="2.66667"/><path stroke-linecap="round" fill="#118972" stroke="#118972" d="M44,0L35.5,-4.9C36.4,-3.5,36.8,-1.8,36.8,0C36.8,1.8,36.4,3.5,35.5,4.9L44,0" stroke-width="1"/></g><g transform="translate(108.66,68.85)" id="shape78"><text class="st9"><tspan y="22.5" x="6">表示客户的正常状态转换</tspan></text></g><g transform="translate(108.96,96.85)" id="shape79"><text class="st17"><tspan y="18" x="4.1">表示服务器的正常状态转换</tspan></text></g><g transform="translate(52.26,120.08)" id="shape80"><text class="st18"><tspan y="11.4" x="6">应用：表示状态转换在应用进</tspan><tspan y="30.4" x="46">程发起操作时发生</tspan></text></g><g transform="translate(52.26,158.34)" id="shape81"><text class="st19"><tspan y="16" x="9">接受：表示状态转换在接受到</tspan><tspan y="35" x="73">分节时发生</tspan></text></g><g transform="translate(52.26,188.66)" id="shape82"><text class="st16"><tspan y="25.5" x="9">发送：表示这个转换发送什么</tspan></text></g></g></svg>