<svg xmlns:xlink="http://www.w3.org/1999/xlink" height="804" viewBox="0 0 1132 804" xmlns="http://www.w3.org/2000/svg" xmlns:ev="http://www.w3.org/2001/xml-events" width="1132"><style type="text/css"><![CDATA[
.st5 {fill:#000000;font-family:宋体;font-size:12pt}
.st4 {fill:#118972;font-family:宋体;font-size:12pt}
.st6 {fill:#191919;font-family:宋体;font-size:12pt}
.st9 {fill:#236ea1;font-weight:bold}
.st8 {fill:#a2516c;font-weight:bold}
.st7 {fill:#af5921;font-weight:bold}
.st3 {fill:#ff0000;font-family:宋体;font-size:12pt}
.st2 {fill:#ffffff;font-family:宋体;font-size:14pt}
.st1 {fill:#ffffff;font-family:宋体;font-size:20pt}
]]></style><defs/><g id="page1" transform="translate(5,5)"><rect height="794" stroke="#808080" y="0" width="1123" fill="#ffffff" x="0"/><g><g><path stroke="#527294" d="M0,0L1122.5,0L1082.5,40.8L39.1,40.8L0,0z" id="shape1" fill="#527294"/><g id="shape2" transform="translate(291.86,0)"><path stroke="#3498db" d="M0,0L538.8,0L478.1,56.7L60.7,56.7L0,0z" fill="#3498db"/><text class="st1"><tspan y="36.8" x="164.4">SCTP状态转换图</tspan></text></g></g><g transform="translate(0,765.35)"><path stroke="#527294" d="M38.2,0L1084.4,0L1122.5,17L0,17L38.2,0z" id="shape3" fill="#527294" transform="translate(0,11.34)"/></g></g><g transform="translate(89.09,46.93)"><g transform="translate(0,-0)"><g transform="translate(347.04,65.1)"><path stroke="#3498db" d="M14,28L192,28C199.7,28,206,21.7,206,14C206,6.3,199.7,0,192,0L14,0C6.3,0,0,6.3,0,14C0,21.7,6.3,28,14,28z" id="shape4" fill="#3498db"/><text class="st2"><tspan y="20" x="61">CLOSED</tspan></text></g><g id="shape5" transform="translate(347.04,79.1)"><path stroke="#ff0000" d="M0,0C31.5,-124.3,199.8,-83.5,205.8,-4.4" fill="none"/><path stroke="#ff0000" d="M206,0L208.8,-5.3C207.9,-4.8,206.9,-4.4,205.8,-4.4C204.7,-4.3,203.7,-4.6,202.8,-5.1L206,0" stroke-width="1" stroke-linecap="round" fill="#ff0000"/></g><g id="shape6" transform="translate(420.54,34.1)"><text class="st3"><tspan y="19.5" x="8">起始点</tspan></text></g><g transform="translate(631.04,141.1)"><path stroke="#3498db" d="M14,28L200,28C207.7,28,214,21.7,214,14C214,6.3,207.7,0,200,0L14,0C6.3,0,0,6.3,0,14C0,21.7,6.3,28,14,28z" id="shape7" fill="#d5db9e"/><text class="st2"><tspan y="20" x="37">COOKIE-WAIT</tspan></text></g><g transform="translate(350.04,303.1)"><path stroke="#3498db" d="M14,28L190,28C197.7,28,204,21.7,204,14C204,6.3,197.7,0,190,0L14,0C6.3,0,0,6.3,0,14C0,21.7,6.3,28,14,28z" id="shape8" fill="#aa5527"/><text class="st2"><tspan y="20" x="30">ESTABLISHED</tspan></text></g><g transform="translate(631.04,230.1)"><path stroke="#3498db" d="M14,28L198,28C205.7,28,212,21.7,212,14C212,6.3,205.7,0,198,0L14,0C6.3,0,0,6.3,0,14C0,21.7,6.3,28,14,28z" id="shape9" fill="#bed742"/><text class="st2"><tspan y="20" x="9">CHOOKIE-ECHOED</tspan></text></g><g transform="translate(74.33,444.39)"><path stroke="#3498db" d="M24.9,49.8L123.4,49.8C137.1,49.8,148.3,38.7,148.3,24.9C148.3,11.2,137.1,0,123.4,0L24.9,0C11.2,0,0,11.2,0,24.9C0,38.7,11.2,49.8,24.9,49.8z" id="shape10" fill="#00af54"/><text class="st2"><tspan y="19.9" x="8.1">SHUTDOWN-</tspan><tspan y="41.9" x="25.1">PENDING</tspan></text></g><g transform="translate(631.04,444.39)"><path stroke="#3498db" d="M24.9,49.8L123.4,49.8C137.1,49.8,148.3,38.7,148.3,24.9C148.3,11.2,137.1,0,123.4,0L24.9,0C11.2,0,0,11.2,0,24.9C0,38.7,11.2,49.8,24.9,49.8z" id="shape11" fill="#aa92ce"/><text class="st2"><tspan y="19.9" x="8.1">SHUTDOWN-</tspan><tspan y="41.9" x="21.1">RECEIVED</tspan></text></g><g transform="translate(74.33,569.68)"><path stroke="#3498db" d="M24.9,49.8L123.4,49.8C137.1,49.8,148.3,38.7,148.3,24.9C148.3,11.2,137.1,0,123.4,0L24.9,0C11.2,0,0,11.2,0,24.9C0,38.7,11.2,49.8,24.9,49.8z" id="shape12" fill="#f1a500"/><text class="st2"><tspan y="19.9" x="8.1">SHUTDOWN-</tspan><tspan y="41.9" x="46.1">SENT</tspan></text></g><g transform="translate(631.04,569.68)"><path stroke="#3498db" d="M24.9,49.8L123.4,49.8C137.1,49.8,148.3,38.7,148.3,24.9C148.3,11.2,137.1,0,123.4,0L24.9,0C11.2,0,0,11.2,0,24.9C0,38.7,11.2,49.8,24.9,49.8z" id="shape13" fill="#ef8f8a"/><text class="st2"><tspan y="19.9" x="8.1">SHUTDOWN-</tspan><tspan y="41.9" x="22.1">ACK-SENT</tspan></text></g><g id="shape14" transform="matrix(0.95,0.32,-0.32,0.95,553,79.1)"><path stroke="#ff0000" d="M0,0L187.9,0" stroke-width="2.66667" fill="none"/><path stroke="#ff0000" d="M195.1,0L186.6,-4.9C187.5,-3.5,187.9,-1.8,187.9,0C187.9,1.8,187.5,3.5,186.6,4.9L195.1,0" stroke-width="1" stroke-linecap="round" fill="#ff0000"/></g><g id="shape15" transform="matrix(-0.02,1,-1,-0.02,738,169.1)"><path stroke="#ff0000" d="M0,0L53.8,0" stroke-width="2.66667" fill="none"/><path stroke="#ff0000" d="M61,0L52.5,-4.9C53.4,-3.5,53.8,-1.8,53.8,0C53.8,1.8,53.4,3.5,52.5,4.9L61,0" stroke-width="1" stroke-linecap="round" fill="#ff0000"/></g><g id="shape16" transform="matrix(0.95,0.31,-0.31,0.95,595,68)"><text class="st3"><tspan y="17.5" x="8.3">应用：主动打开</tspan></text></g><g id="shape17" transform="matrix(0.96,0.3,-0.3,0.96,582.6,93.8)"><text class="st3"><tspan y="15.4" x="6.1">发送：INIT</tspan></text></g><g id="shape18" transform="translate(566.96,175.97)"><text class="st3"><tspan y="18" x="51.2">接受:INIT ACK</tspan><tspan y="37" x="4.2">发送:COOKIE ECHO</tspan></text></g><g id="shape19" transform="matrix(-0.95,0.31,-0.31,-0.95,737,258.1)"><path stroke="#ff0000" d="M0,0L185.1,0" stroke-width="2.66667" fill="none"/><path stroke="#ff0000" d="M192.3,0L183.8,-4.9C184.6,-3.5,185.1,-1.8,185.1,0C185.1,1.8,184.6,3.5,183.8,4.9L192.3,0" stroke-width="1" stroke-linecap="round" fill="#ff0000"/></g><g id="shape20" transform="matrix(0.95,-0.31,0.31,0.95,536.3,295.1)"><text class="st3"><tspan y="21" x="8.3">接受:COOKIE ACK</tspan></text></g><g id="shape21" transform="matrix(-0.85,0.53,-0.53,-0.85,350,317.1)"><path stroke="#ff0000" d="M0,0L231.2,0" stroke-width="2.66667" fill="none"/><path stroke="#ff0000" d="M238.4,0L229.9,-4.9C230.7,-3.5,231.2,-1.8,231.2,0C231.2,1.8,230.7,3.5,229.9,4.9L238.4,0" stroke-width="1" stroke-linecap="round" fill="#ff0000"/></g><g id="shape22" transform="matrix(0.85,-0.53,0.53,0.85,194,389.4)"><text class="st3"><tspan y="16.7" x="10.2">应用：主动关闭</tspan></text></g><g id="shape23" transform="matrix(0.86,-0.52,0.52,0.86,189.5,412.4)"><text class="st3"><tspan y="19.7" x="8.2">发送：未决DATA块</tspan></text></g><g id="shape24" transform="matrix(0,1,-1,0,148.5,494.2)"><path stroke="#ff0000" d="M0,0L68.3,0" stroke-width="2.66667" fill="none"/><path stroke="#ff0000" d="M75.5,0L67,-4.9C67.8,-3.5,68.3,-1.8,68.3,0C68.3,1.8,67.8,3.5,67,4.9L75.5,0" stroke-width="1" stroke-linecap="round" fill="#ff0000"/></g><g id="shape25" transform="translate(151.3,510.22)"><text class="st3"><tspan y="18" x="4.5">不在有未决数据</tspan><tspan y="37" x="4.5">发送:SHUTDOWN</tspan></text></g><g id="shape26" transform="translate(222.61,594.61)"><path stroke="#ff0000" d="M0,0L401.3,0" stroke-width="2.66667" fill="none"/><path stroke="#ff0000" d="M408.4,0L400,-4.9C400.8,-3.5,401.3,-1.8,401.3,0C401.3,1.8,400.8,3.5,400,4.9L408.4,0" stroke-width="1" stroke-linecap="round" fill="#ff0000"/></g><g id="shape27" transform="translate(355.65,569.68)"><text class="st3"><tspan y="16.7" x="6.4">接受:SHUTDOWN</tspan></text></g><g id="shape28" transform="translate(335.46,595.18)"><text class="st3"><tspan y="16.7" x="6.1">发送:SHUTDOWN ACK</tspan></text></g><g id="shape29" transform="translate(388.26,617.71)"><text class="st3"><tspan y="15.8" x="6.3">(同时关闭)</tspan></text></g><g id="shape30" transform="matrix(0.01,1,-1,0.01,450,93.1)"><path stroke="#118972" d="M0,0L202.8,0" stroke-width="2.66667" fill="none"/><path stroke="#118972" d="M210,0L201.5,-4.9C202.4,-3.5,202.8,-1.8,202.8,0C202.8,1.8,202.4,3.5,201.5,4.9L210,0" stroke-width="1" stroke-linecap="round" fill="#118972"/></g><g id="shape31" transform="translate(227.35,161.71)"><text class="st4"><tspan y="18" x="4.1">接受:有效的COOKIE ECHO</tspan><tspan y="37" x="67.1">发送:COOKIE ACK</tspan></text></g><g id="shape32" transform="matrix(0.76,0.64,-0.64,0.76,554,317.1)"><path stroke="#118972" d="M0,0L190.4,0" stroke-width="2.66667" fill="none"/><path stroke="#118972" d="M197.6,0L189.1,-4.9C189.9,-3.5,190.4,-1.8,190.4,0C190.4,1.8,189.9,3.5,189.1,4.9L197.6,0" stroke-width="1" stroke-linecap="round" fill="#118972"/></g><g id="shape33" transform="matrix(0.78,0.63,-0.63,0.78,586.8,317.4)"><text class="st4"><tspan y="15.4" x="6.4">接受:SHUTDOWN</tspan></text></g><g id="shape34" transform="matrix(0.77,0.64,-0.64,0.77,570.2,328.8)"><text class="st4"><tspan y="19.7" x="8.2">发送：未决DATA块</tspan></text></g><g id="shape35" transform="matrix(0,1,-1,0,705.2,494.2)"><path stroke="#118972" d="M0,0L68.3,0" stroke-width="2.66667" fill="none"/><path stroke="#118972" d="M75.5,0L67,-4.9C67.8,-3.5,68.3,-1.8,68.3,0C68.3,1.8,67.8,3.5,67,4.9L75.5,0" stroke-width="1" stroke-linecap="round" fill="#118972"/></g><g id="shape36" transform="translate(503.91,510.76)"><text class="st4"><tspan y="18" x="82.1">不再有未决数据</tspan><tspan y="37" x="10.1">发送:SHUTDOWN ACK</tspan></text></g><g id="shape37" transform="matrix(0,1,-1,0,705.2,619.5)"><path stroke="#000000" d="M0,0L60.1,0" stroke-width="1.33333" fill="none"/><path stroke="#000000" d="M65.1,0L59.1,-3.5C59.7,-2.4,60.1,-1.3,60.1,0C60.1,1.3,59.7,2.4,59.1,3.5L65.1,0" stroke-width="1" stroke-linecap="round" fill="#000000"/></g><g id="shape38" transform="translate(703.3,622.54)"><text class="st5"><tspan y="18" x="4.5">接受:SHUTDOWN ACK</tspan><tspan y="37" x="4.5">发送:SHUTDOWN </tspan><tspan y="56" x="4.5">COMPLETE</tspan></text></g><g id="shape39" transform="translate(705.18,684.67)"><path stroke="#000000" d="M0,0L232.4,0" stroke-width="1.33333" fill="none"/><path stroke="#000000" d="M237.4,0L231.4,-3.5C232,-2.4,232.4,-1.3,232.4,0C232.4,1.3,232,2.4,231.4,3.5L237.4,0" stroke-width="1" stroke-linecap="round" fill="#000000"/></g><g id="shape40" transform="matrix(0,-1,1,0,942.6,684.7)"><path stroke="#000000" d="M0,0L601,0" stroke-width="1.33333" fill="none"/><path stroke="#000000" d="M606.1,0L600.1,-3.5C600.7,-2.4,601,-1.3,601,0C601,1.3,600.7,2.4,600.1,3.5L606.1,0" stroke-width="1" stroke-linecap="round" fill="#000000"/></g><g id="shape41" transform="translate(553.04,79.1)"><path stroke="#000000" d="M5.1,0L391.3,0" stroke-width="1.33333" fill="none"/><path stroke="#000000" d="M0,0L6,3.5C5.4,2.4,5.1,1.3,5.1,0C5.1,-1.3,5.4,-2.4,6,-3.5L0,0" stroke-width="1" stroke-linecap="round" fill="#000000"/></g><g id="shape42" transform="translate(779.32,594.61)"><path stroke="#000000" d="M0,0L157.3,0" stroke-width="1.33333" fill="none"/><path stroke="#000000" d="M162.4,0L156.4,-3.5C157,-2.4,157.3,-1.3,157.3,0C157.3,1.3,157,2.4,156.4,3.5L162.4,0" stroke-width="1" stroke-linecap="round" fill="#000000"/></g><g id="shape43" transform="translate(777.39,572.81)"><text class="st5"><tspan y="16" x="5.5">接受:SHUTDOWN</tspan><tspan y="35" x="28.5">COMPLETE</tspan></text></g><g id="shape44" transform="matrix(-1,0,0,-1,74.3,594.6)"><path stroke="#000000" d="M0,0L67.5,0" stroke-width="1.33333" fill="none"/><path stroke="#000000" d="M72.6,0L66.6,-3.5C67.2,-2.4,67.5,-1.3,67.5,0C67.5,1.3,67.2,2.4,66.6,3.5L72.6,0" stroke-width="1" stroke-linecap="round" fill="#000000"/></g><g id="shape45" transform="matrix(0,-1,1,0,1.7,594.6)"><path stroke="#000000" d="M0,0L507.5,0" stroke-width="1.33333" fill="none"/><path stroke="#000000" d="M512.5,0L506.5,-3.5C507.1,-2.4,507.5,-1.3,507.5,0C507.5,1.3,507.1,2.4,506.5,3.5L512.5,0" stroke-width="1" stroke-linecap="round" fill="#000000"/></g><g id="shape46" transform="matrix(-1,0,0,-1,347,79.1)"><path stroke="#000000" d="M5.1,0L345.3,0" stroke-width="1.33333" fill="none"/><path stroke="#000000" d="M0,0L6,3.5C5.4,2.4,5.1,1.3,5.1,0C5.1,-1.3,5.4,-2.4,6,-3.5L0,0" stroke-width="1" stroke-linecap="round" fill="#000000"/></g><g id="shape47" transform="translate(0,253.71)"><text class="st5"><tspan y="18" x="4.4">接受:SHUTDOWN ACK</tspan><tspan y="37" x="4.4">发送:SHUTDOWN COMPLETE</tspan></text></g></g><g transform="translate(0,7)"><g><path stroke="#3498db" d="M288.2,65.8L288.2,0L0,0L0,65.8L288.2,65.8z" id="shape48" fill="#d4dbb2"/></g><g id="shape49" transform="translate(17.17,13.83)"><path stroke="#ff0000" d="M0,0L52.8,0" stroke-width="2.66667" fill="none"/><path stroke="#ff0000" d="M60,0L51.5,-4.9C52.4,-3.5,52.8,-1.8,52.8,0C52.8,1.8,52.4,3.5,51.5,4.9L60,0" stroke-width="1" stroke-linecap="round" fill="#ff0000"/></g><g id="shape50" transform="translate(16.17,43.83)"><path stroke="#118972" d="M0,0L52.8,0" stroke-width="2.66667" fill="none"/><path stroke="#118972" d="M60,0L51.5,-4.9C52.4,-3.5,52.8,-1.8,52.8,0C52.8,1.8,52.4,3.5,51.5,4.9L60,0" stroke-width="1" stroke-linecap="round" fill="#118972"/></g><g id="shape51" transform="translate(83.17,5.83)"><text class="st3"><tspan y="15" x="7">表示客户的正常状态转换</tspan></text></g><g id="shape52" transform="translate(83.17,33.33)"><text class="st4"><tspan y="15" x="6">表示服务器的正常状态转换</tspan></text></g></g><g transform="translate(0,634.83)"><path stroke="#3498db" d="M393.2,65L393.2,0L0,0L0,65L393.2,65z" id="shape53" fill="#ebf0ff"/><text class="st6"><tspan class="st7" y="18" x="8.1">应用:</tspan><tspan>     表示状态转换在应用进程发起操作时发生</tspan><tspan class="st8" y="37" x="8.1">接受:</tspan><tspan>     表示状态转换在接收到分节时发生</tspan><tspan class="st9" y="56" x="8.1">发送:</tspan><tspan>     表示这个转换发送什么</tspan></text></g></g></g></svg>